<mxfile host="65bd71144e">
    <diagram id="5HEm0Gx7beR8rxWNhGSI" name="PÃ¡gina-1">
        <mxGraphModel dx="1494" dy="2793" grid="1" gridSize="14" guides="1" tooltips="1" connect="1" arrows="1" fold="1" page="1" pageScale="1" pageWidth="827" pageHeight="1169" background="#0766E3" math="0" shadow="0">
            <root>
                <mxCell id="0"/>
                <mxCell id="1" parent="0"/>
                <mxCell id="2" value="" style="endArrow=classic;html=1;rounded=0;align=center;" parent="1" edge="1">
                    <mxGeometry width="50" height="50" relative="1" as="geometry">
                        <mxPoint x="-350" y="-930" as="sourcePoint"/>
                        <mxPoint x="-350" y="-870" as="targetPoint"/>
                    </mxGeometry>
                </mxCell>
                <mxCell id="68" value="" style="edgeStyle=none;html=1;" edge="1" parent="1" source="3" target="67">
                    <mxGeometry relative="1" as="geometry"/>
                </mxCell>
                <mxCell id="3" value="&lt;div style=&quot;&quot;&gt;&lt;span style=&quot;background-color: initial;&quot;&gt;BASES DE DATOS&lt;/span&gt;&lt;/div&gt;" style="shape=cylinder3;whiteSpace=wrap;html=1;boundedLbl=1;backgroundOutline=1;size=15;rounded=0;align=center;" parent="1" vertex="1">
                    <mxGeometry x="-420" y="-1100" width="140" height="170" as="geometry"/>
                </mxCell>
                <mxCell id="5" value="" style="endArrow=none;html=1;rounded=0;align=center;" parent="1" edge="1">
                    <mxGeometry width="50" height="50" relative="1" as="geometry">
                        <mxPoint x="-670.25" y="-690" as="sourcePoint"/>
                        <mxPoint x="1890.25" y="-686" as="targetPoint"/>
                    </mxGeometry>
                </mxCell>
                <mxCell id="6" value="" style="endArrow=classic;html=1;rounded=0;align=center;" parent="1" edge="1">
                    <mxGeometry width="50" height="50" relative="1" as="geometry">
                        <mxPoint x="-670.5" y="-690" as="sourcePoint"/>
                        <mxPoint x="-670.5" y="-630" as="targetPoint"/>
                    </mxGeometry>
                </mxCell>
                <mxCell id="7" value="" style="endArrow=classic;html=1;rounded=0;align=center;" parent="1" edge="1">
                    <mxGeometry width="50" height="50" relative="1" as="geometry">
                        <mxPoint x="-30.5" y="-690" as="sourcePoint"/>
                        <mxPoint x="-30.5" y="-630" as="targetPoint"/>
                    </mxGeometry>
                </mxCell>
                <mxCell id="8" value="" style="endArrow=classic;html=1;rounded=0;align=center;" parent="1" edge="1">
                    <mxGeometry width="50" height="50" relative="1" as="geometry">
                        <mxPoint x="-351" y="-690" as="sourcePoint"/>
                        <mxPoint x="-351" y="-630" as="targetPoint"/>
                    </mxGeometry>
                </mxCell>
                <mxCell id="9" value="CONCEPTOS" style="shape=ext;double=1;rounded=0;whiteSpace=wrap;html=1;align=center;" parent="1" vertex="1">
                    <mxGeometry x="-480" y="-870" width="260" height="120" as="geometry"/>
                </mxCell>
                <mxCell id="10" value="DATOS" style="shape=ext;double=1;rounded=0;whiteSpace=wrap;html=1;align=center;" parent="1" vertex="1">
                    <mxGeometry x="-770" y="-630" width="200" height="90" as="geometry"/>
                </mxCell>
                <mxCell id="11" value="SGBD/DBMS" style="shape=ext;double=1;rounded=0;whiteSpace=wrap;html=1;align=center;" parent="1" vertex="1">
                    <mxGeometry x="-130" y="-630" width="200" height="90" as="geometry"/>
                </mxCell>
                <mxCell id="12" value="INFORMACION" style="shape=ext;double=1;rounded=0;whiteSpace=wrap;html=1;align=center;" parent="1" vertex="1">
                    <mxGeometry x="-450" y="-630" width="200" height="90" as="geometry"/>
                </mxCell>
                <mxCell id="13" value="" style="endArrow=classic;html=1;rounded=0;align=center;" parent="1" edge="1">
                    <mxGeometry width="50" height="50" relative="1" as="geometry">
                        <mxPoint x="-350.5" y="-750" as="sourcePoint"/>
                        <mxPoint x="-350.5" y="-690" as="targetPoint"/>
                    </mxGeometry>
                </mxCell>
                <mxCell id="14" value="" style="endArrow=classic;html=1;rounded=0;align=center;" parent="1" edge="1">
                    <mxGeometry width="50" height="50" relative="1" as="geometry">
                        <mxPoint x="-280" y="-1010" as="sourcePoint"/>
                        <mxPoint x="10" y="-1010" as="targetPoint"/>
                    </mxGeometry>
                </mxCell>
                <mxCell id="15" value="Tipos de Bases de Datos" style="shape=ext;double=1;rounded=0;whiteSpace=wrap;html=1;align=center;" parent="1" vertex="1">
                    <mxGeometry x="10" y="-1070" width="260" height="120" as="geometry"/>
                </mxCell>
                <mxCell id="16" value="" style="endArrow=classic;html=1;rounded=0;align=center;" parent="1" edge="1">
                    <mxGeometry width="50" height="50" relative="1" as="geometry">
                        <mxPoint x="270" y="-1010" as="sourcePoint"/>
                        <mxPoint x="420" y="-1010" as="targetPoint"/>
                    </mxGeometry>
                </mxCell>
                <mxCell id="18" value="" style="endArrow=none;html=1;rounded=0;align=center;" parent="1" edge="1">
                    <mxGeometry width="50" height="50" relative="1" as="geometry">
                        <mxPoint x="420" y="-922.5" as="sourcePoint"/>
                        <mxPoint x="420" y="-1097.5" as="targetPoint"/>
                    </mxGeometry>
                </mxCell>
                <mxCell id="19" value="" style="endArrow=classic;html=1;rounded=0;align=center;" parent="1" edge="1">
                    <mxGeometry width="50" height="50" relative="1" as="geometry">
                        <mxPoint x="420" y="-1100" as="sourcePoint"/>
                        <mxPoint x="570" y="-1100" as="targetPoint"/>
                    </mxGeometry>
                </mxCell>
                <mxCell id="20" value="" style="endArrow=classic;html=1;rounded=0;align=center;" parent="1" edge="1">
                    <mxGeometry width="50" height="50" relative="1" as="geometry">
                        <mxPoint x="420" y="-920" as="sourcePoint"/>
                        <mxPoint x="570" y="-920" as="targetPoint"/>
                    </mxGeometry>
                </mxCell>
                <mxCell id="21" value="RELACIONALES&lt;br&gt;(SQL)" style="shape=ext;double=1;rounded=0;whiteSpace=wrap;html=1;align=center;" parent="1" vertex="1">
                    <mxGeometry x="570" y="-1160" width="200" height="90" as="geometry"/>
                </mxCell>
                <mxCell id="22" value="NO RELACIONALES&lt;br&gt;(NoSQL)" style="shape=ext;double=1;rounded=0;whiteSpace=wrap;html=1;align=center;" parent="1" vertex="1">
                    <mxGeometry x="570" y="-950" width="200" height="90" as="geometry"/>
                </mxCell>
                <mxCell id="23" value="" style="endArrow=none;html=1;rounded=0;align=center;" parent="1" edge="1">
                    <mxGeometry width="50" height="50" relative="1" as="geometry">
                        <mxPoint x="920" y="-922.5" as="sourcePoint"/>
                        <mxPoint x="920" y="-1097.5" as="targetPoint"/>
                    </mxGeometry>
                </mxCell>
                <mxCell id="24" value="" style="endArrow=classic;html=1;rounded=0;align=center;" parent="1" edge="1">
                    <mxGeometry width="50" height="50" relative="1" as="geometry">
                        <mxPoint x="770" y="-1100" as="sourcePoint"/>
                        <mxPoint x="920" y="-1100" as="targetPoint"/>
                    </mxGeometry>
                </mxCell>
                <mxCell id="25" value="" style="endArrow=classic;html=1;rounded=0;align=center;" parent="1" edge="1">
                    <mxGeometry width="50" height="50" relative="1" as="geometry">
                        <mxPoint x="770" y="-920" as="sourcePoint"/>
                        <mxPoint x="920" y="-920" as="targetPoint"/>
                    </mxGeometry>
                </mxCell>
                <mxCell id="26" value="" style="endArrow=classic;html=1;rounded=0;align=center;" parent="1" edge="1">
                    <mxGeometry width="50" height="50" relative="1" as="geometry">
                        <mxPoint x="920" y="-1010" as="sourcePoint"/>
                        <mxPoint x="1040" y="-1010" as="targetPoint"/>
                    </mxGeometry>
                </mxCell>
                <mxCell id="27" value="DOCUMENT&lt;br&gt;(JSON FORMAT)" style="shape=ext;double=1;rounded=0;whiteSpace=wrap;html=1;align=center;" parent="1" vertex="1">
                    <mxGeometry x="1040" y="-1055" width="200" height="90" as="geometry"/>
                </mxCell>
                <mxCell id="38" value="" style="edgeStyle=none;html=1;rounded=0;align=center;" parent="1" source="28" target="37" edge="1">
                    <mxGeometry relative="1" as="geometry"/>
                </mxCell>
                <mxCell id="28" value="ENTIDADES" style="shape=ext;double=1;rounded=0;whiteSpace=wrap;html=1;align=center;" parent="1" vertex="1">
                    <mxGeometry x="190" y="-630" width="200" height="90" as="geometry"/>
                </mxCell>
                <mxCell id="30" value="" style="endArrow=classic;html=1;rounded=0;align=center;" parent="1" edge="1">
                    <mxGeometry width="50" height="50" relative="1" as="geometry">
                        <mxPoint x="289.5" y="-690" as="sourcePoint"/>
                        <mxPoint x="289.5" y="-630" as="targetPoint"/>
                    </mxGeometry>
                </mxCell>
                <mxCell id="44" value="" style="edgeStyle=none;html=1;rounded=0;align=center;" parent="1" target="43" edge="1">
                    <mxGeometry relative="1" as="geometry">
                        <mxPoint x="610" y="-420" as="sourcePoint"/>
                    </mxGeometry>
                </mxCell>
                <mxCell id="54" value="" style="edgeStyle=none;html=1;" edge="1" parent="1" source="31" target="53">
                    <mxGeometry relative="1" as="geometry"/>
                </mxCell>
                <mxCell id="31" value="ATRIBUTOS" style="shape=ext;double=1;rounded=0;whiteSpace=wrap;html=1;align=center;" parent="1" vertex="1">
                    <mxGeometry x="510" y="-630" width="200" height="90" as="geometry"/>
                </mxCell>
                <mxCell id="32" value="" style="endArrow=classic;html=1;rounded=0;align=center;" parent="1" edge="1">
                    <mxGeometry width="50" height="50" relative="1" as="geometry">
                        <mxPoint x="609.5" y="-690" as="sourcePoint"/>
                        <mxPoint x="609.5" y="-630" as="targetPoint"/>
                    </mxGeometry>
                </mxCell>
                <mxCell id="37" value="&lt;ul&gt;&lt;li&gt;DATOS&lt;/li&gt;&lt;li&gt;CATALOGOS&lt;/li&gt;&lt;li&gt;PIVOTES&lt;/li&gt;&lt;/ul&gt;" style="whiteSpace=wrap;html=1;rounded=0;align=left;" parent="1" vertex="1">
                    <mxGeometry x="200" y="-490" width="180" height="90" as="geometry"/>
                </mxCell>
                <mxCell id="43" value="&lt;div style=&quot;&quot;&gt;&lt;ul&gt;&lt;li&gt;&lt;span style=&quot;background-color: initial;&quot;&gt;Numeros enteros y flotantes&lt;/span&gt;&lt;/li&gt;&lt;li style=&quot;&quot;&gt;&lt;span style=&quot;background-color: initial;&quot;&gt;Cadenas y caracteres de texto&lt;/span&gt;&lt;/li&gt;&lt;li style=&quot;&quot;&gt;&lt;span style=&quot;background-color: initial;&quot;&gt;Fechas y horas&lt;/span&gt;&lt;/li&gt;&lt;li style=&quot;&quot;&gt;&lt;span style=&quot;background-color: initial;&quot;&gt;Booleanos&lt;/span&gt;&lt;/li&gt;&lt;li style=&quot;&quot;&gt;&lt;span style=&quot;background-color: initial;&quot;&gt;Blobs y archivos&lt;/span&gt;&lt;/li&gt;&lt;li style=&quot;&quot;&gt;&lt;span style=&quot;background-color: initial;&quot;&gt;Datos geograficos&lt;/span&gt;&lt;/li&gt;&lt;/ul&gt;&lt;/div&gt;" style="whiteSpace=wrap;html=1;rounded=0;align=left;" parent="1" vertex="1">
                    <mxGeometry x="490" y="-378" width="240" height="165" as="geometry"/>
                </mxCell>
                <mxCell id="48" value="" style="edgeStyle=none;html=1;rounded=0;align=center;" parent="1" source="45" target="47" edge="1">
                    <mxGeometry relative="1" as="geometry"/>
                </mxCell>
                <mxCell id="45" value="CRUD" style="shape=ext;double=1;rounded=0;whiteSpace=wrap;html=1;align=center;" parent="1" vertex="1">
                    <mxGeometry x="830" y="-630" width="200" height="90" as="geometry"/>
                </mxCell>
                <mxCell id="46" value="" style="endArrow=classic;html=1;rounded=0;align=center;" parent="1" edge="1">
                    <mxGeometry width="50" height="50" relative="1" as="geometry">
                        <mxPoint x="929.5" y="-690" as="sourcePoint"/>
                        <mxPoint x="929.5" y="-630" as="targetPoint"/>
                    </mxGeometry>
                </mxCell>
                <mxCell id="47" value="&lt;ul&gt;&lt;li&gt;CREATE&lt;/li&gt;&lt;li&gt;READ&lt;/li&gt;&lt;li&gt;UPDATE&lt;/li&gt;&lt;li&gt;DELETE&lt;/li&gt;&lt;/ul&gt;" style="whiteSpace=wrap;html=1;rounded=0;align=left;spacingTop=0;" parent="1" vertex="1">
                    <mxGeometry x="870" y="-490" width="120" height="115" as="geometry"/>
                </mxCell>
                <mxCell id="49" value="LOGICA DE NEGOCIO" style="shape=ext;double=1;rounded=0;whiteSpace=wrap;html=1;align=center;" parent="1" vertex="1">
                    <mxGeometry x="1150" y="-630" width="200" height="90" as="geometry"/>
                </mxCell>
                <mxCell id="50" value="" style="endArrow=classic;html=1;rounded=0;align=center;" parent="1" edge="1">
                    <mxGeometry width="50" height="50" relative="1" as="geometry">
                        <mxPoint x="1249.5" y="-690" as="sourcePoint"/>
                        <mxPoint x="1249.5" y="-630" as="targetPoint"/>
                    </mxGeometry>
                </mxCell>
                <mxCell id="52" value="" style="shape=image;verticalLabelPosition=bottom;labelBackgroundColor=default;verticalAlign=top;aspect=fixed;imageAspect=0;image=data:image/webp,UklGRqIiAABXRUJQVlA4WAoAAAAYAAAAVwIAwgEAQUxQSCMAAAABDzD/ERFCUds2UPmTHoH9Lkf0P4v//Oc///nPf/7zf7jTCQBWUDggliEAALDDAJ0BKlgCwwE+bTSYSSQipSYiEEkIwA2JZW5M6w2VEyh0cUXDayUkgpz53VZ0HOaV/jbaI2Bfs2J7w/I9Lv6z+7/tz7795fy/9a/Y/WbH47bc6399/5X+O9xv6X9gD9ZOlD5gP2B/bP3ofyq9zf99+475BP6p/qvXA/8nsbfvB7Av7Qem57KX9c/8Hpf////7duz0e/hX7b+wa7O9UMXfjTPB2+8AJ6vyn9ALAX+x81P5XWszYvKX+7BzAL1Lvj6OUkmRqEIgH5UVzaiium6hPV6KYta60Snqc3HfSDLocTqcAFyCqwQLuX0pRKkq/tJICV2ihrwnDxBHGGRA+UTN0ybpMBASPQDypFypLXZ3xtZZYGtsec6TgLlOD/K72g9lH9WlM4bKGVQwuaFRgXl22FTYKh3juvlpZMurcAAr5PdQiVzSvrdqsiz8j6SosZhqr4x9D679ZVAuROchkwOMoGQIt3+I0NqFU65cNDVmbAmKsxPxDm7j4zBONtiHmbbyVejxaXKfGyxP+yWkCxfaisXLQorubvcqEVdUHl3Icmnwpr0TWIFMrgFC6eDK0bufp3pphsmLfiOg6jKfg6uTvanXYy8lvZkBc+vJbYckfea2ZOunzSeaYeJOmwLVrPBdIAa4c+QjOMy/32vK4tLZTUW5Yeb+YLfihlPVnKOiN22qbxqR3E50S0WoCONi/Dk7qWiWqbR5CFdpaBNC5/cbzTmX8oBZRoKN/UgdnY6t+DF0wkRiNdoo8Q1JGuUllM0NwfVdagRDfe1lcucGchLl2/4nPUGk4mY9IqxXjuo4sJ4JZGFaQeNcQ6ZvJ5HpxvyprknbAr1KaAEIAelqfwEoujP4o5Ui9O2DrIPTcfwnhzZ6HNEGgABJDQnR/mvcwc5joY4fZEh5u1AcoaplAeiLX5N3+yeirOOg6kb0K9R+PDvVDTEfMrhr5dp/nQTRATdKZMi2hy37+X3Hyojv6ddefAyqXqL1yERPAzETqunhIGfPH2r/E6tCWv6iznoXHn05C/5i0Ak4sWamlH7h+55uv2F/9vNzvLWs+1BwV1/VKI4zXGh+oL/hvaCRkQEYzdFsA2jS5hqdv+e/EzU4T3RfutrUVf+XVs7eGBI6IpmByB+6yUQIJ76D2V0wAHDmyMkLtlxhuwdxx6GqaUJoTvM7Rt40xMviVb8QhzD8P1H200e9kGKuqMBSeo3C09cLs75uxPgQFJTlIjVNCdopJ3lEZhrfUH7vaL5OtEVpgLX3UY9j87saiFQtchdvQ/y6SbqGFrRJ4dfOj6t7mwnBn0EfCn53O+wmht0k2ORLYVNp1kxPA+kNzw0IbS9zDi2giBQ6HTgM1S7W58qqXIVG/0iCFKzbqVJ8J50ef4k7jHyu8lemslmnWneWbw1fMyT2kDpH6sUPQNgxNNyRtKLc8BPjTfiNgU45H/MCZlQULx7fyeHLXVPCylFkeNQo6rm4Ctyb2t+bytEpjibk/lvMoYB91XW4kdpDS/9yDgpZIQybtL4ytH4rGCYiMLN/w74tdsvpjI886ECl6/COsx8h3LqsKKoJ7nblPZYmpBPo983D2H+501c7dCfJoveXZsoeNZ5vP8fCgnoV+6rzy/mXvyVQE/WcrmNVTEd+199QQacRPLGjCUoGeG/mf1TLLwTskF07lg/yyiQt1wZWuCU/5VVq2Kggc3E25D4vT2/u4Wa0k0JtG//nPAuvVzrhxWOs0RnnluS5Arg9BCcY7NE/bl5QLIuIoWcrTN/wHWMQkR9dJLTaZgYkiyiVs/U5e/yp4eG7usdeg1hBry5T3nSuqVyw8Mo7seK+O1SWt1ZoV5+6vd9dQTZaTC2mDrAdu93HgYpwPJr2tjbwuedRF7fdmjpDbD16Uo1IEbMW4XF2RT0JHPlq8Si8F5NQ9A2o7eiUU1oD2U2NQXxmzJiVK4f9fLV7Va6Gt5Fg/54N/9jAgXThabOBSQHmozo5Wuo9EI7AHqmpoN6Z1xYuQZdRrC+4LM0gbOwETWx8Lx/lxBLy8BDw1yh7T1LlkJi7HM6g5CwAf1iU3Mc2gmTKWpfrGGbAy4mdUg62H0j1I7ujjHAI70QyZ5WqTh4AAP6SHxGO/8kDwK3OHN/+Xr8QuWr/juA8rDpFW73dRxOhS0i2+Tc86HdIEqDaC7vdv8q9SUi1W7TZV65W15kDP6ns+L89w2oWphZBBA0KKWdhnnDpZMYgNauxgD1XZAhgIMa+Z2is3yazM0Uj2lf7ghPB8B7tV27tYuhHg24SNRmo1R8XdAnS309MENO/R+NXQ6La5laSr6PKDO0Mx2jMNvhwjOOK1GinhxmsXrL1QiKamNjfxAqELAmP2m0AQbxUJWvNDjoToGEDjkz20KL+8QF5c9lv701Nc2dbxB3T7Kml2h+wgRs90u0PXXiWxvbHyVv+ZRAtoSjHWOewwzPhHCd4kY9xa+ah54ZU1PqxEU42uhoRNSroKkb1jkm9UoYbae2R+vJmtXKLNkX08SPHmHCU6Ht7veY8pqDzX20eUNJffaI8RuvwttZ/n7dNVQIz+wISds5j+bmfZOf39cQX83JAglUKj9t33aafTOH4zgOVixnGqvxiin5b8AaVg1y9mB5OAboTEpTarDLtC9tkTTFzKzMNg+Icbm4vjepqV5wpkQM0cyGK1prgfYSPzOqUfsPV+3eflulCEjhxky1gfitqmVivp/Qr8WRuhaBu9+1Ew2NEeuS8ircxPGmCHcDUC0NBkpdU8ZOHD5RKtcTVK6WF9I2i5qWO739Z4O40H+ADvmV00/GpQZ6Aj8lgQOl2wfrAPlqPFAMT+NRzk2aRMSeDC65LbWY9IjUrCG0oHPkwd6nDeZfoljNAan+vfk2Tc2UnTpAqt8ZHjovC0FbRTT0xbuUT0ND75N2YO4Zz4oHWeg+5WjxAP/ZYGmwSncdVFe1IFEFqtBkvPgCvo6u6xobNe2cBP0klFiXBB5Ej1JyH4n29U/pLSGnFWQRyLD1SlC2UJNsV5MUe6jPiolfsp8dp2KInzPV4FGhczW759juM5IZIvnvtT0UTbvUdr0YxDJPVkZ1aGiMw7rbNYswdrasIIQhkNY4AmCnqKlTvLosWKxs7T69dMN2G2N6o2w5s9/6+P4ZBgC2G7oRS7pO2u1ae6zDtuzG3qdN0uJBC6DsQkX9F8E6oo8aYkCSSiOEG0He/gbzuT1Bhig+KVIZgbp9y9Gkst7RmndsXcX3Uo5mY8jiOT1pQC+9KvzYXMIakBqmTTv7IbguDuidZDDR+B9a7NKXY64a0Qgn0STcuV8GTpiY7sdy0+pkSAl/KDuM58stFvrIvq+lGIZrGLxhK0sg6p75SGwfmqKOPp9RwT9+/WfkJXEKVU4lzSUHFxkMkJKkRBahJuo2lCFqIoxbHcezTx4y97dm5LjbWOcgB+NWChhpS7A2hTIArj4B8unhtWYU2t02vMla3kWrCsSgQNKZgyylPqTCwZIxGVNdLBi/5CuQLZ0FUiVZ/d5KqS3S7DnmZrCYMUAkcr+qtAsilALQyiblEj7gumitbYcTzEG8tW9KFeDxqmdoJ3PhdEGcPMAGrV+AtOTDqa1RXjhhqEEYvUdg+WKm/B0mt9u/4a+jMIjt4SpFdlipYyIyuzUjiOUZLdh4wB91hpZFKXIxgM9OkMkeskNKxpmYQFraBn92hAZXdKeEZwU8hOt065YuwFVT1YrAmD74RAHbhH/knsyVApWsa2ms0YwvL9FjbO9hVA/kXPpqotW4Kn/mgxm5676Dam1QROyos+D6XdBSrOTvZS+yEPG8oY+N1L5+o+fd1JkwMswragXSko1mhGuqeoCXySC2MCtgPOqOafohyXYEcCCRUvqe3+Ih+MLJVpYh41UqpTYZ0V6rbM0VDhBkj3z9FTq/boKVtARfdzgdPQf8ymXBsiMgcPMEUksM8SjNUEjTwh04P96EmwrSHTnQxe3EkM6Hytkd1ANvCaYE+qnCVtXbh5o9+HkRBBtTSQUHrMirIy/pUYW//sjwks8L9l/Kq1YnZxG1uLswnHvty1q8OwQWTf3C1kXm+4ilU9IdAVdsjTNdsnnvE5eplloaQ+7mj6aPIzI7oQ16URo6x5Q4y9xtfkXy4HWAwGDS1wPJb1+TR+UhVfJ3qBmQAhT1gzroW0vm3oapnWDdeLsklcKITSXa0JW0xFzuzdKEYRe7QzRd8Sx/DaPdD0Y6NuFRgP3gR6ZWMFwH28oPw+sJcskCjGVSwei7JKGuRKLIel7uJwFLCE8vafY3/nVhR22feflsF+Q+piVJAHot23dH+DaflrlG/Jkm0k6y5RrqQzPbwznss/kzt8ciqWzOIYogl8bMAc8I2p5Z/rLP1ANHYEtY7tNMvjit3ILEBCd9t8FepzOtj5sbx8m/lJFOUqgEZvLysRW6bt10tLCfH01IouF8oM6hnxXf0eUanFUnQWR67EA6ds95C9Q0dbMSTpTqHMfsHF9jNi+YXHFpBEjEKy3bYJwdhpYPf1bj+6epi57aojEUnpuXItpVIxI/DWqdcwA5psqWenz4/VD524Vz9kdwC5QmqFOnRbf8vwvyrw/FzLO1n8Wgjwsaqe06wwRvHPSX4x1f9nqsqAgUqnTqxUXqKKDdZ47QTYPp6fxe14+9mrtJJsRLHP/BV1Tqi1VzW4nc8SQ8Jm3kDHO7lT8b+T9QbWx8g0iHhqtSjv+XC67YyYql5ie2pW2pqYPk2Ils8rR1uSLupC6/CC3vE/uITL6w7cvfFf/3M6C7tB9gA7SUZQzT6HY4ulxjw5kx+dlc8Ev5ZcxD9ieRbdZsQd/EmzgwMfJadfc2GoG3WZPQgxlMbi5pSGO1sv6sQnkIf115py49LCCaZ8Rk+Ix9ECgJcVCzz0WD/Myk4vaYRnzZ80S35qiQhyy8VvoTR2yppLO6IrNYI426O/DYb4DsKlqXLBDJDKSPoo+zYAeGwas0gjC/PwN0pq5qxdIIScVEjoABYtSq2t/lFby8E3RVWJLAq2WQyQDCTU6QF7mBoc3WRvAqw/HDbQX2fkKJONU+Ky7LMxaecn5Q3MJYP3eBS0I/us8wxbgxbWtihf/RTqdPi4fTZIenerpjruTrmFvuQxHqu8tI6maclpBNjT8MtLlMlHPJehiKjFY7lBXX8uznSmgQ/VH9G2l15tXb0pWWdPbicejalZAxN7qsU/8Jy2BnRK+/4qBYfw5sF/cC5XnqRP13sYiZ66watkAUMbQYnW+EFUH8cCN2o4qB9nS6HgqfRshwhG2vZNAn10Q+sDdJBFATEKkquUpuReyMUIYXhyOtzA78CYNiv+2IYtNQtEFxItRAp8S5EBxDGB2lLmYNZkuZSJ5nWMGsst6qphVm7jz5dKdIzYGxHGLZgIH5A8LTLowcbNKeMPDS3/pANS3+aP/yXLCe5IiChYusgFaN//3OKXgL88SkgyxrITc42WTxSlCCifnWwiVV4b+t+G/+/0LA0DHrwPZpYFTZpieCGJXEWz2Aah37lKM22jNJWnI8B1Ssidl4CDGksN3+z/M1GH9ns0Avf9iI5LzadnPd2pdLRb7LFn0Daj8l/ddoYq6+VhyGwyV3d3hq26RYgC1RbVB1uJO3jI+uxyLQn1Wd5yxbMS+uLP0xhaHeXdC4dwYblstMklpsz76pqcC4hqbuuAq/+vwqA9g75ZmHIOIwKK7b0vtKYOPPGVaHsRfutkUgGcvkGlkWj7KLR8Z+j/1lVG85t+6PzreoVUgwBMa7H+mWcf5Evqw4FYJVscZqUSo32p0X6nK40TWrMZ2A7bPOKDUhCb4+3yvwS1EP0URlocue1ouxApEWIFKnqM2QvW0iraWHNQaEDQtU89UaUCfksYSNg36kyC+Ldd0dJIzy9qpDpCmozG39ndRx65qs2a2IQ+CSDdd5alSRe+z6ImRSvff1E0+9xaQRXcDnHLZ2bftjYjrejZ/p5fo5snlAE4+fV5LgnXUYMS9trApmsKqXrt/nwt8EXSra6r7Os5Jn2zNh8ANYLEv1obcDjqo8OP7FZtHFjoGCExgRWMZHCCityd8T0RN2K6QsZ9LSpsxSZyr/Q0akjqqbobF2FjuRiZ68lQvXbrSG3UnaOsQHWxDllx1Gp0Xl+J6L2e1SS74SwrQvN6i3sGB+ef5fX9Q8mXvDuGmqwI7Od8vl5cxcw+Zlk3aGVMO1be0wSLhw7MPaKdMyhyTUSugPwnxux8lX6N3d/2GDIxyPa9t/WClUP6GilRtC6/LcGdZtprFZ6x+AZXpLzkotkyo2PGy4nNfyJ7AC/fN8CX7I1ThZwQepJJJmbEoRMwJKwxCLJhaPy0T/4LDd9JUQ8fIyyBlyysIK7ENRKKXW5noJLG+Bj3hqSRrimEZhs7+za9EkVp0tSykoTkL76XUHWSluu/QK9/+b8aqtOJ+jMFhOcvDbHH26ZvGFtvT37DfQAUmqOGtdrN1/zYQmZqVF8gE3hFETmX9bD8yJEAHyJxPHMLYiXZAXdzzNyXTXVP1X93ejFULeBymqXx97dHcwJz2GmM+jGu0x2/U7Z+AKe3L/SNhFKfV+Tg82kK12NqfPBoC5llKkrreEAR5NeX8479SGT9fmOpWENLlvY5evckL2tWx4hNMQyaH6ztO2D7CamXDu8MIGTqfLdQJHyhp6+0453ZeYb+tFzfu5PM84UUZxbKD3M0HXCswXBMBrQl/t4i9Kp16MSM5kl5bBDXNpESf5I2JvIvRKTVp3OunKsApTnIV8Ixwyp2WK3XTZ9u7p3zIW0oiT0ka6pp44Uu/UDWi0M+G71AAdc3NzjoNN6j2X9wJcW9HD+eVimMoctk31wKv/WRZUQF4HJfUqoXI5kY2jBtPI8tghGkhB8ZiqtgdP1cBq0AqCTvpqmP+dUbuDDqh0Mk/iPR+68KXrj5sSfpQALUDIvWO7P1aag2minXg+6aR3+W+V1G/kQThR+SYDEIrnhkz2fryp3SVBpJz8byuTuPOlc/bsPWfeI93YYWg2Et/VQKIDXWGDYP35CizrQ8U1UmvUEFjygRk0ni/xsrJTRoduHnlP0MVSSrlHPYxnfGkGXNiV6HTGIvPpMlXmT5eicNu/x2wlEN91BswajG5YcupBj/S7V+YgkZ80Plc2MtkIXBDpoQ22MNE4t1lZ9rgPBis08gX8t680AJKT7bJN9ilTiTMf4rS2VdeCxiamY5EBPt71wkBC6UpvKzfOLxYvaFESFbPbJcVaPcpNcpoPBip8+tkcM2lmJSLK59PQsiUYGb8vEj8LAHUv8ylKVfDw8tUpYyOqROyA/Gs/K9NL0wgKD5mOn92FxI8gszUzcDMTF4B5cPEklQyxBzvVyCkUF3/BnS6jN3K6pv50BNWr0+JezZVeYOKiixRM/6xG+9zbhkDi2IgY/q43epyh6pQUTVW/O7JIAUi9zqbYTPnfLKzB9zSUnhpziCsFdZTNRyApFHZJC3tBhiMEuR+AR/qvGAsOHDTyH/zDBrH0MMkLOo3XD0QrKLQBswrmCmr06avXVVSdN/3z8BmD0I/IJEafKnecKivmgZAqiYzDHZnvJlBa+TBSa3SDDVlwD3QSfhvNiKkR7SZL4+8vZjT32cwfviT6HaeDa5grUXCTd1C+5Gu2/etPL+IeQRQmpEIi9xszcF8/LRCDDLgYMTVce+671KYH1/5nkrd31eTcL8ZVgRUdMQpDQT8eVOZMN65+gDzxHrHoVkdnx/KZxqOcQI0T7xObE1JdTHmHgy6Xicwa9wD5Xx3eOETYI8uBzf0lOCHYSGmD/phJc8p6czX/EhpjfB+Mtn1Wur40GCrUtyORq4PzPzFEbegy+0C4hGctwn5O0bE/WXK2NFGEh9Om8olySHVSp/kYxZn3tqa5dIa6hJVv1GFj8/h8MCsXXVhvLv/oDWWLUVbwyZQe/cTTwshMlLhJtOFc9fw/ASDBWK4wkF+wPxUw0yhG23GV/yEFTxUtEB0pSMc4kFhk7qptXOAORocOkQG+ycToHniKFW7/jzKmVsrh27nUvHKiwQiIL40TMOop1jVsOuS3PAfrQ55J4yWVloNixsBHRlAWq8MWMK1RvlcOHGO0ykdBZXw6ut8M/mdPl21Z6eBAjKU4FfEWM4/umQ4i3V3vIde2qXIFv0L6/zjCtzYymT87jaU/2RylF7XkQULGPH1fyM5UlIjK+eqYrVjrSkayJMLzeePoRTlUXroWgSiW56z9PPiXjDvx9l3CsskyaAMU4al44kiyHNwINMZzOBXKqcT3ZUYCzH1UDwY/w4VJ5MpSa5WddwHwQsFt+fV6OJKr23jwziOXyC10Mf3u2+kJdmSfTmUXtwm/8WptdbhM0bmar3g/5ll67rkGJBCKi96IdsbjWgL/CcGaZXuJ9+ar+EKlBLl5FSwHBqy8YS6+n+WyAsLoCs+Bk/wTiSnLdlFnGCgrJLgCnMNsp3jdln+iapqg3xzmVQCQQnxXZKIQFBks+eBHfECU/ZNlpLGRoezP7LQvnQFrxVu400j/k2VOfFk9+AZUtNcF1Vq681t4TSh9NfD3+D/6w/zjwvXH2KPhitI+O7SVoRa4sMBQodBcSxaC3Xqscn0cT37DRYHygCw4gUaJ4GNR6JG9O6/mpKm4bqmPnTGLsj7Egky3WXTSlbTt9zwkxnBIK9sbaGBDOm7F2phrAewhXOis37Aqx9Ehlt7NiPDk6nZiKzhUGh9ZegjH35WK5pxD8w9W263tDXzCBG/MlccjieOy3VwWOXL+dPPPv85FhYLJzp8RJ8kqKI+GUu7y4reLNp7X9+rEOGknPXJiJ3Q9HejrQAQh6bIw0QEgVhLr3uxE9oNTUHlMdEBwqiF96z7pTBsR/lz6LYmSX6UcSPoMTJ2FtGNxwa9/1ja190kdI9ObvznADoycsVzQmcMjGfdRwkTUliedplXagJVrudCJkWs2ryBSEI3Z3Sztxx59gMVy7Wjc7gescH6xRpf/DYIiPmpvgYnm6qU7hsdXv3owCp4fXrZCp027xOhcwwVPyOVrDBy1jai4qAuxin4tE0r8TIGGakfRDrU9P6BoEjcxM93FcHBkydgNwOt2aJ7g/CZomFHsS/6vdVCd6DRrxNFrtgYWK7WHvWRGLkmUcdjY+TLQJ/Sa370likCgnHWXl+B7XUaNDFGDdjEjL6fDRd55d8KUOlTm3LW717XUBS+QODooNiXk01x5UT7dREe7KJwCnsWTby8fWQB6FfX0jEQdQDVfkKemHtYHnzmyunCzi0iE3XtxYz12hLocUDYzXUQT5J++X5jOyHyYzKb63iOSGR6pDAhnhhTvRwcXet9mKVMcyiv/AXel4WOaawkrDY/cubnzpu+dgzCIa6FZ3Lrtr5sD5OQKq03XzyuOIMOPJnG+2QC+FctDFsICrn5t+nOKSLgJSKreOKvleifk47mnL2eRZfLQ9HvIN/LH/Ti6dGBu93OlWl0fJOYKJpxptuEjUK/1y4QbBXlGEq2cVdNWYJfI9NqbzWQvhBrHsYPIbE5Mxj5XaSl1rDgyQ11FqvZQG6isv3lBO8aP/jIzR1SEwY5M6gt5iGWQJAGkR4md0KBoK39ij1zSY2/YRGs02vm3F5Qv0uO5V+0pG+YiUV931NKZ8osHqkhOTd1DOa45tY4+krof8qzYIhojQZOfdD9cH1AOa6e6dI/yrnDLTMmN/7944EhmQFMAhUc5aSXj0/CRTBxjBtiq6nyyRv5SUfpS8haICGdxxjIEaNU/s9FQA1r4xyqRgsXrfesXYpzPDMOX00Ifo722UUaQbfwTa78JXwcolfqFUFgJ52Jy5U+aFw4vu5/Ce4/6EsN60jCxwknTqYRoDgyCBiPfRn8wU9tE5xwX3PKSVSZCWlhE0NttCZxG76vdiuRnret5jwsm1P6CPWfIbOIG4gKZawcX6XgYgIHY9K40apthbe643rdt/sTn6AlSXTnI7Rs7A0tgJZ/AqMnMRMTFX24gwo4IeyVZ1gUinPzFm+vX5/WPFMqxeSRUcn0Kvth1YG9QEx7Q07n4u2hfHZ0hPqc2r1zPJa0SKhSHxxoCBNICX2e47USzNhztbX1JBP3IhCk+H9s8qHJMle2ZEZlzurE9nGj8YXw84pbE/vvH1OHkilQC0+jT/cikax52cQNxcrDsgIZcGpS4USlfN1f59Fic47AR+yiXxTflIcnbgL4CGKFTMAQqhaUmP0NMPZS6uI/KAM7eJNiA0CjEPffwR0LVs7ZzaP7Ke2zE0IsZmnG4UJq1lgvkblOATJkJWbrUnIR3NZvp8rjUlx1dO99wqhlWzs5T7CgFntHD4cpIXVSgfjqsgAqsGDOwXoALN/nkXIaxqjArkP8cFOL6zuoy6otZPpIuIw73//Rrx4mexxUVQVOCOCtMXkkTvpP18SjLa3H9BatbY8/nWNmLSCUhKgWL2idYDwpNvbH77DuED0YHWcMFwrHNtwecrgFdTR8gHDX6DTSvIwsG/5qclF09UdCXNPVpf+k/BId15OaGywT2azoCBEFMgEZqWHKvKXDSi6PWNa3eHKVr/Ak9r7Fanm1KogrSI8n0k6GAoYgNVSvFGuw+CBMBfqYlIOEm6DkcXOiawUBpoHkUE2mzfrkUYzJlhurlaMK6dWN3CkZw0Fji8+gHdOUXuB/0SJOtKIMGy63H6Z9HgBuRNG0BZjBw5LtvUmuWUMag4w2HE5GQRmDWARtZoiE8NzkKWRnMBg1FslKo1ferPs4xhb1aQonLnX+6M44s1LyFHR09vboX/SKjIEJ4IEnEhBElROw92NhPQctlIIVkH1U3A0OGGp8IIuuqwYguvEsDiq7M3ro/BrWEope7b+fsljzPDSZ1VQoJK8iDqeixaGnVEMEQILg+rWH3ZUog88qmkZmSejwgHFGA0+eF514d61Jlzm8g8RXlRsV5SgU0BJMEVpwuoRcLYOjvGGmnIet+uOE1d2BnARRyao838k0DgJffFac+XIRNBQPnk2T9HMePiXHp5Ct4eABjxsVtXJrJl5xE6Y6iVNvQZRRFqEfdIsp4auzACdFZhs6v0r8hE7lskuc+FSdh+nvExHWyzD1inQ30OFJyWGbRLAI8SbsdtDdD/JzUk8e1ebiP/G9WUwobBlvMViw9jCPjHn4awwYzYknf+aNd8EdsTk0PUUf+zg29CqHwL2h3ErH+0JmaIcjnjZrpQr9cPfWcZhjF/KBzAeaK+evIUYB62F4xFh1jsttxN4IjcFoqCb31vtdAzCS2A8uugHpuep58ggY1ZfiH478tDTsKeHSeimhzgYEEC0nvhvE1oRMcd33XmxCQ7p4JStNKcX3aDEyh/hxWwolOUCTOhCQTUNUYB769hJGKnYq1uz66IwuVtpXvISGbFx7lEiOxFFmorbQ7u+6Yui/zxk1cGdXga+DfspougrsQkmwc7wh4AGqzWEI/oe5cJx7mnY1sMQl8BaR0NURqq3trbXQZBZ5rHDk8dalL8+rfCgh0AINvgAEVYSUa6AAAARXhpZgAASUkqAAgAAAAGABIBAwABAAAAAQAAABoBBQABAAAAVgAAABsBBQABAAAAXgAAACgBAwABAAAAAgAAABMCAwABAAAAAQAAAGmHBAABAAAAZgAAAAAAAABIAAAAAQAAAEgAAAABAAAABgAAkAcABAAAADAyMTABkQcABAAAAAECAwAAoAcABAAAADAxMDABoAMAAQAAAP//AAACoAQAAQAAAFgCAAADoAQAAQAAAMMBAAAAAAAA;rounded=0;align=center;" parent="1" vertex="1">
                    <mxGeometry x="190" y="-880" width="226.16" height="170" as="geometry"/>
                </mxCell>
                <mxCell id="53" value="TIPOS DE DATOS" style="whiteSpace=wrap;html=1;rounded=0;" vertex="1" parent="1">
                    <mxGeometry x="532" y="-490" width="154" height="70" as="geometry"/>
                </mxCell>
                <mxCell id="58" value="" style="edgeStyle=none;html=1;" edge="1" parent="1" source="55" target="57">
                    <mxGeometry relative="1" as="geometry"/>
                </mxCell>
                <mxCell id="55" value="LLAVES" style="shape=ext;double=1;rounded=0;whiteSpace=wrap;html=1;align=center;" vertex="1" parent="1">
                    <mxGeometry x="1470" y="-630" width="200" height="90" as="geometry"/>
                </mxCell>
                <mxCell id="56" value="" style="endArrow=classic;html=1;rounded=0;align=center;" edge="1" parent="1">
                    <mxGeometry width="50" height="50" relative="1" as="geometry">
                        <mxPoint x="1569.5" y="-690" as="sourcePoint"/>
                        <mxPoint x="1569.5" y="-630" as="targetPoint"/>
                    </mxGeometry>
                </mxCell>
                <mxCell id="57" value="&lt;ul&gt;&lt;li&gt;Primarias&lt;/li&gt;&lt;li&gt;Foraneas&lt;/li&gt;&lt;li&gt;Unicas&lt;/li&gt;&lt;/ul&gt;" style="whiteSpace=wrap;html=1;rounded=0;align=left;" vertex="1" parent="1">
                    <mxGeometry x="1479" y="-490" width="182" height="98" as="geometry"/>
                </mxCell>
                <mxCell id="66" value="" style="edgeStyle=none;html=1;" edge="1" parent="1" source="63" target="65">
                    <mxGeometry relative="1" as="geometry"/>
                </mxCell>
                <mxCell id="63" value="RELACIONES" style="shape=ext;double=1;rounded=0;whiteSpace=wrap;html=1;align=center;" vertex="1" parent="1">
                    <mxGeometry x="1792" y="-630" width="200" height="90" as="geometry"/>
                </mxCell>
                <mxCell id="64" value="" style="endArrow=classic;html=1;rounded=0;align=center;" edge="1" parent="1">
                    <mxGeometry width="50" height="50" relative="1" as="geometry">
                        <mxPoint x="1891.5" y="-690" as="sourcePoint"/>
                        <mxPoint x="1891.5" y="-630" as="targetPoint"/>
                    </mxGeometry>
                </mxCell>
                <mxCell id="65" value="&lt;ul&gt;&lt;li&gt;1 a 1&lt;/li&gt;&lt;li&gt;1 a M&lt;/li&gt;&lt;li&gt;M a M&lt;/li&gt;&lt;/ul&gt;" style="whiteSpace=wrap;html=1;rounded=0;align=left;" vertex="1" parent="1">
                    <mxGeometry x="1808" y="-490" width="168" height="84" as="geometry"/>
                </mxCell>
                <mxCell id="69" style="edgeStyle=none;html=1;" edge="1" parent="1">
                    <mxGeometry relative="1" as="geometry">
                        <mxPoint x="-350" y="-1330" as="targetPoint"/>
                        <mxPoint x="-350" y="-1330" as="sourcePoint"/>
                    </mxGeometry>
                </mxCell>
                <mxCell id="72" value="" style="edgeStyle=none;html=1;" edge="1" parent="1" source="67" target="71">
                    <mxGeometry relative="1" as="geometry"/>
                </mxCell>
                <mxCell id="67" value="MODELO&lt;br&gt;ENTIDAD - RELACION" style="whiteSpace=wrap;html=1;rounded=0;" vertex="1" parent="1">
                    <mxGeometry x="-464" y="-1330" width="228" height="95" as="geometry"/>
                </mxCell>
                <mxCell id="71" value="" style="shape=waypoint;sketch=0;size=6;pointerEvents=1;points=[];fillColor=default;resizable=0;rotatable=0;perimeter=centerPerimeter;snapToPoint=1;rounded=0;" vertex="1" parent="1">
                    <mxGeometry x="-360" y="-1467.5" width="20" height="20" as="geometry"/>
                </mxCell>
                <mxCell id="75" value="" style="edgeStyle=none;html=1;" edge="1" parent="1" source="73">
                    <mxGeometry relative="1" as="geometry">
                        <mxPoint x="-350" y="-1946" as="targetPoint"/>
                    </mxGeometry>
                </mxCell>
                <mxCell id="73" value="" style="shape=image;verticalLabelPosition=bottom;labelBackgroundColor=default;verticalAlign=top;aspect=fixed;imageAspect=0;image=data:image/jpeg,/9j/4AAQSkZJRgABAQAAAQABAAD//gAfQ29tcHJlc3NlZCBieSBqcGVnLXJlY29tcHJlc3P/2wCEAAkJCQkKCQoMDAoPEA4QDxUUEhIUFSAXGRcZFyAxHyQfHyQfMSw1KygrNSxOPTc3PU5aTEhMWm5iYm6Kg4q0tPIBCQkJCQoJCgwMCg8QDhAPFRQSEhQVIBcZFxkXIDEfJB8fJB8xLDUrKCs1LE49Nzc9TlpMSExabmJiboqDirS08v/CABEIAhwDPgMBIgACEQEDEQH/xAA0AAEBAAMBAQEAAAAAAAAAAAAABgQFBwMBAgEBAAMBAQEBAAAAAAAAAAAAAAMEBQIGAQf/2gAMAwEAAhADEAAAANuda0/McldaQ3eSutDkrrQ5K60OSutDkrrQ5K60OSutDkrrQ5K60OSutDkrrQ5K60OSutDkrrQ5K60OSutDkrrQ5K60OSutDkrrQ5K60OSutDkrrQ5K60OSutDkrrQ5K60OSutDkrrQ5K60OSutDkrrQ5K60OSutDkrrQ5K60OSutDkrrQ5K60OSutDkrrQ5K60OSutDkrrQ5K60OSutDkrrQ5K60OSutDkrp/MLGe61yXrVfQCltAAAAAAAAAAAAAAAAAAAAAAAAAAAAAAAAAAAAAAAADEMtD+pQ6rJ3hKfawSPrUfDBz9JqSyRViegAMTmHT+YaHn3WuS9a4mCltAAAAAAAAAAAAAAAAAAAAAAAAAAAAAAADAM9FfCz1+m2x5fc4Y2fhawpfsb+C1azZgH4/XMt+U8PkZZWg+YuXqz11/5wyg/Uv7lY+fT5AdAjCx/Xh7gGJzDp/MNDz7rXJetcTBS2gAAAAAAAAAAAAAAAAAAAAABEFunP2UAAAAAAANLpVmPoa/JncEtvkX6FiiPYsnz6aLDqYcuARdpF2gnaIRdPm6E3Up4fT3Yv6P3+8b9lrgS+5NPsqT6AAYnMOn8w0PPutcl61xMFLaAAHw+vg+gAAAAAAAAAAAAAAAAAazZjFxsHf9xfocSgAAAAAecLffDX7DTaUtEX8K/wBof8F2iP0WuHLZhrqDc/QCLtIu0BHlFM5FWRXpZfkk1X+iR+Vv7ItafDW7PR6AuwAYnMOn8w0PPutcl61xMPGltes5orEmlqIz2q/pKedNlEX8tRIVf7kiuT1CAAAAAAAAAAAAAAD8n2P/ABubGfia+m8eZNn+4iw+d+4isgAAAAAAAfmVqpopwAAAcuoPC3IhcQpdNfsBgZ4gtnTfCJodr9PQDUZsMVm38/QAxOYdP5hoefda5L1riZI12PS2vb9Qd0frCzdcY+sxBi5/jgm/p5qlBNGg2f7riM2m/jywxsnBqS/Ey8nq0yZFMmRTJkUyZFN+JwWPp4e/sMga6fjYtaNknaIAHh9+fuM+UU9D85BBfD59/E1UfmSvk5MRU9cZwhtiTKwnCjYOcAfnDzorDu1KWZNqpSwpdB4ipSwqUsKn3j9/ch2w9NnRdpF2gBPay0ETsaT4ajM/GuM/V7LYkatPpJVn0AAYnMOn8w0PPutcl61xMFLa/EpXCKWv5JfKaI3/AIaHYH6/FBtCL322ADnnQ+dlxrv1rKE/gPz7dxp3Y4d2L10G2yZ+NXl+z41FVq9nH1shQmpc+U9f0bApsbQ/m1FRJzzKLNkPhXpDwKyQ1N7azfkxV86q6PRPsD6Pt1NaqWOxuW5h0WbpXcH52PO87uK2w5xDcqfxMimyZAV6QFbG/v8AHktUPOX9O1fnoQfvImM6zHuful2UXVV+vD3zLLeaNp1rT7K/v3mJr7eBvgRRYTePTkqtBFrQRa0EfvtjozeoWuMwAGJzDp/MNDz7rXJetcTDGpbXrH4d6ReVW4pr9l+vQ8fPKxjWaqx/RFbGkwjNQ1yI+wjywwc7CpzS7ZPFbGtbIa1shrWyGtbIa1shvPfHyPc4oWIwAANbO2mFNT89Vr6TmXEZqOfx8ssYvnnfD7OfmksZ/ntSG6HPYAACKspvzGlgs5gXsFnDBZ2CGcMFnDB3+u2ejX2g9rj8z32NbHN7rCxSmA0+48Cdxd75muq9dsD6BC2UUXoAMTmHT+YaHn3WuS9a4mTtF8pbWHmwu9N7od8InKrBI+FqI7bbsHlInh+8+oIndbwAAAAAAAAAAAAAYslb+MtXC/cxRfPvqfiOx9mvldYofjNILwfOgAAAAAAElWyZWAAAAi7SLtBp9wIr3rvwYedotGXP3nX5Oj+ENsjK1tTmkbY/QABicw6fzDQ8+61yXrXEwUtpr9gI78Wgi/Wu+kgrhGfm2ElT+wAAAAAAAAAAAAAAAA8422/MlbSaTMp5a/4yCvoB8+gAAAAAAAfJKtkSvar2M9q/YzgARdpF2g/OJGG0xa3JInM3eSaL97j3JrFrP2Rqw/ZiZc15lSADE5h0/mGh591rkvWuJgpbQAAAAAAAAAAAAAAAAAAAAAAAAAAAAAAAAACSrZc32BuRqczKAAHPs20HJ+reESX7x9iG9LUc821aIrwvBrNmCJzPwVoAMTmHT+YaHn3WuS9a4mCltAAAAAAAAAAAAAAAAAAAAAAAAAAAAAAAAAAJbfzz5Vh9AAAAfPolcO2Eb6V3wm/tB+Sb8qf3Ij92o12xAADE5h0/mGh591rkvWuJgpbQAAAAAAAAAAAAAAAAAAAAAAAAAAAAAAAAD8fmNkrfr80HpJXzvWHseJ/cRWgAAAAAAAAAAAMTmHT+YaHn3WuS9a4mCltAAAAAAAAAAAAAAAAAAAAAAAAAAAAAAAAMfzkpav2j++j6EVn8zVP8kg9M2KouotmIbgAAAAAAAAAAGJzDp/MNDz7rXJetcTBS2gAAAAAAAAAAAAAAAAAAAAAAAAAAAAAAGu+TE9RT/fvHZM6yOxctGN403sbOeoXcOJu5HYSQb5qfxBd3LTbkAAAAAAAAAxOYdP5hoefda5L1riYKW0AAAAAAAAAAAAAAAAAAAAAAAAAAAAAABhS1tiy1Mf8AUxSfO9dorFHY57uakc73tOHz5MyV/wBU/wCs3rjHZCG3i5QAAAAAAAAAYnMOn8w0PPutcl61xMFLaAAAAAAAAAAAAAAAAAAAAAAAAAAAAAAAA8Y6385a2u9ZnfPmQIrTz/M7LWV/79nwIrQAAAAAAAAAAGJzDp/MNDz7rXJetcTBS2gD5PlCi/0WSO+Fkj/wWaM2JRPn0AAAAAAAAAAAAAAAAAAAAAAAAAA/MdZ/JK+l/eo8Za3yx/X7isBHZAAAAAAAAAAAAxOYdP5hoefda5L1riYKW0m9/Hnyj2Y+fWmNy0GGVafFBh5X6IvOppQq0TlFY1W1AAAAAAAAAAAAAAAAAAAAAAAAAMLUUOlN6AAAAAAAAAAAAADE5h0/mGh591rkvWuJgpbXyBv/ACPT7F/Szn/TEPTz9PpgeuT4FP8Aue1ZaQORVmV+gjbKPsAAAAAAAAAAAAAB+P3ElmhfpeAAAAAAAAAA/Gl3WlN6mqUNFszKAAAAAAAAAAABicw6fzDQ8+61yXrXEwUtoB8/E2bfTYg/b8j9fvyG+2snSmQACPsI+wAAAAAAAAAAAAABifectC1clbPEVsAAAAAAAAD8aXdaUysz3GF9zAAAAPE9kjjlsivhbIoWqK/RZpyhP0AADE5h0/mGh591rkvWuJgpbXyKy96TlX7D59mv2UXzQ4xT/Zz1N5oN76EJZ5HODo6W/B52HPOhgAAAAAAAAAAAA1v3j0lvtLPS+T1Gis+G3kNlJDvRBdAAAAAAAA/Gl3WjN+AAAS5UfIjCNn+s6iPL1eR6/NThlD+obZlM0O9MaVtBPUMVaH0AGJzDp/MNDz7rXJetcTBS2tB932iN6is43WLlZhgeezGoyc7zHrNYJVReXYn359EZZx9gSvzFfnPocpijKYoymKMpijKYo3e60O+9hkMbJw9ar+vvl8PudoN+ADRdR+2j/VDNUCvfAaTduotXSTPlNVq3z7Xvvn3DPzma78mTmSdYAYk1XxfkNb1av3xbma1v0z/x4+JsWH78vViY3Tab+bqNWrmxdpF+0x7Ty9RBXnlIlp8j8syvmozD0xcnzMnfwmUWXhI/s1/Qvz+gADE5h0/mGh591rkvWuJgpbQ8D3/Ej4mz1GV+zTqIaTZfvwKHPi/QsWNkgHM90siKH5f6SenN1malfW5+tz/jA9v14d/NXSandHjSaHfUJvnps9/7DKjfti2acZ+rAR6wEesPhF5GHR2sz3FXTjN8kio/cjuTdbKQrxrdl49Rzfr+LOapI/LP7Xvxf5tvhFfuyEasxGfm0i/G68Tm5P7pzaptfb4lMvbZHfMtX+fhH3otfd4cnG09vGvm5m9H06K9tjWoAPnlgz5tcTE+Ht+/P4bbZTH4LRFi0ajbH0AGJzDp/MNDz7rXJetcTBS2tDpv1ann+/vw/H5l9YdA84/HL1ICv+efqSObQ85OjIf1P3Yc+6CRSt/XjdiQV4kFeJBXiQV4kFeNPvsbJ9FnBoQAAAfmNtPklfT5M7tfvGaIrYAxPvP70P6sp6P59CvfB9AAA+Rdow7sWtGdPFrQRa0EWtBFrQRdRmfL0P6i7SH36NweRrpv5dmg3338H7ef5PZqv2bJi/oyGryDFnbf6aLezG2NiDE5h0/mGh591rkvWuJgpbU74VOEZqM/Ba/iXzje/nEGZ90uAVKJ+mw8dxtB8+iNso+wAAAAAAAAAAAAPknWu4J7Y6j73FtjXRWf3rP3XT0vn0r6AAAAAAAAAAAADSbsTONXiSrZrELCbof2T3tuxHe9UJTZbkS+RQDEy/kqbH5prM+gxOYdP5hoefda5L1riYKW0fJspfkV+yjmtltyBdGEhS/NOU6MFm1O2AI+wj7AAAAAAAAAAAAAAT9A6iiM7CtpaoQXwAAAAAAAAAAAAAAH4/Ykce2EZkVQn/3usc1OLT/oj/zaiMpc4AAYnMOn8w0PPutcl61xMPlLahKbSWI8PeeN76Rgs0jmFB9kfMs2r2hpNZXc9OhIselhJVoAAAAAAAAAB8mKiNMxRicUYnFGOW1lB7E4oxOKMTijGBsoe4AAAAAAAAAAAAAAAAAAAAAMTmHT+YaHn3WuS9a4mCltRm23utNkjPhafI7YlC1PmbpMYRaIn6Zbd54AAAAAAAAAPh9TWvLVFCwm/DxLZG/gtUVklY8/QAPkyU6KFp5S3oa64l/2VH2O8i2Re4N4AAAAAAAAAAAAAAAAAADE5h0/mGh591rkvWuJgpbQAHzwyBr2wGHl/QAAAAAAAAAABodH+rgwM9LFSndkZ/2TySjSmQUf4w84kfSr0Bv9X7Sx41+b9CX+FT80+oLBLYBcJf8AZS4GX6EDd/uILcAAAAAAAAAAAAAAAAAGJzDp/MNDz7rXJetcTBS2gAAAAAAAAAAAAAAHz6IG8+Rpa+clvzJZH0wsXbjT5uX8MbKwp8rYX9UplS9j8MLOlsMsvPT708nt9Nfl+o8/HKxT3/cvgG5xPWkAAAAAAAAAAAAAAAAAAMTmHT+YaHn3WuS9a4mCltAAAAAAAAAAAAAAAAAfNNuhHLESv7pxI/ixE7vfUAAAYuhqBHLERyxEflUwxcoAAAAAAAAAAAAAAAAAAAMTmHT+YaHn1rFJ6Vqikc1qihaooWqKFqihaooWqKFqihaooWqKFqihaooWqKFqihaooWqKFqihaooWqKFqihaooWqKFqihaooWqKFqihaooWqKFqihaooWqKFqihaooWqKFqihaooWqKFqihaooWqKFqihaooWqKFqihaooWqKFqihaooWqKFqihTTJJX/AP/EADoQAAEEAgACCAQGAgEEAgMAAAMBAgQFAAYRFhASExQVIDE1ITAyQCIzNDZQYBdBIwckQ0clJkJRcP/aAAgBAQABCAD/APp2xezy/wCsuIxicXH2Clhfnk3+hTijE3uD6D58BjN7gsT8Yd8oPR0HYKWTw7Jr2OTi3zbF7PL/AKvNsIkALiyEu7q3crKxmoyZadpZRdWo4vDqMiQxJwYgxp6dRmKMa4aFDe1UfJ1OildZXk1KbCVH1vMN1UvQdrBsYk0DSR/JsXs8v+kPmwgJ+MmwUwl/FzfQDRURNyoFXAbJRP4YyzgHVrWI5rk4p5VMBF4L3mNh5kYICFWqr3bDJWzsGtaxqNbjlRqKqjszlIiNZYiWYoGzrlo5kAAGXEZkYDyeLwRsCuIqKiKmPY17Va60gP1mYyfBCVpBMI3p2L2eX/RZ1nCrxq+SuxW9hxZV8v7BMRHThaRUInWOPUNeF9Lddp2pj6GlRPiTU6En1SNIof8Axu1GzirxgJabRVLwl1Wy11kvVb011IG6u7rvPItXkrRa18Y6M02wGkHw4nQVqPG9ixlnAVsdAwZLSiGpKya4kFiLFNXwxNWNAljihRgGdkETOncJrHxhVoYQljw44PJsXs8v+iX1s2qhKRKrXHnek62axrERrcbdRUkmBiyRodBZ3gCO6isnjViK98gLERXKYTFRF6LnVoc9qmHrlvMQ562w6NU98vum71lsozZkKPslnVqo7evvKmaxFjyAskAINU0YK+nIgs5EFj9CjuRFeLTAiewmJwa1EybfVNcz/mNsFrZ/8VTTa6yCV0qT5Ni9nl/yZtisY8O8aW6uJcEkNwYVtJLsZwJ87cGqGRSySDewjGuZ0AqpRZtop54rJZyPBIYVh4o3wK47jx+8GBYugxGKIE3sa4hWceo3j0I9sndhuB0ap75feQghkarXz9RpJCq/OVLgHxhd33WJ8EWz28fr4/tnV6ueJbaX07vukr1TVrU/62JqdND4PVgxjREb5di9nl/yc3Xq2TXSYZT1QHn7UsWmhQVgdh86dXx5sYkcwn3erv7N1bsNXOY3s0VF6XQoqyEOvklWUKG1XHkXtlbuWNUUdIGqArU6NU98vvJNtIMJqukP2wx3Kyu4bpN+OLrF8X4yeR0d+byFB/3yKFPy+UrcX6dYe6xOKs5ot4nBthW7BVTuHZeXYvZ5fyle1vr3uKnqk2JjTCd9P8KqoicVJskUcpBox7CMa9nz1RFTgs/U6ma9SI7W9iiL/wBi2fuMP4FXbLMScDrvI2N/GLf4xh9YKbhMf8A+MbXIRUA2m2+dwU8XUKxioSUIQwsRjOnVPfL7puLyWSX4ZVwNUjMVDzxjGJqNZhTBCnEjJkVWq5iKipxTvQWSGhXoVEVOC2eq1kv/AJEi2tpr8oUWzRUciKnTsXs8vzOcjUVVm7ZVR3qILrjbZ/wjpQ7HLRVkN0RH/E3Idcifi5DrF9HaFF//AATUbQCcYy86Vy/hBuD46oyzgWEKaJHRv4Bzka1XOn2R7IvdYg6eK2MonRpMqlkIMoTCMJhRfZ2AWpBkKukozwX5NbdJV3V3i7lPd+UXZNjeJyC0RO1hSpJem7CE9bNc6wGo64IY8aS+M2E1RzjkmuMlRJI6WjE6djjRy08xDascr6GE4vTsXs8vyzZoIUYhyiDa7O9TGhU1dXsRgcVUROKikxjIvZMIN/Hgk+M2SULuk0cJ2q0tjqTwkWTVa7sBJjiQ5f3xHsGxz3zJsm3P3ePDhiiCRjMOARxuGQZJdHI4pGlAlBaQX2Uxid0Nmh+0v+Tq6MW7v1eiInpk6HY6/YEnw6u9rrZiPF0Oa1zVaqgEvV4rDj9n1VbGAz6RgCJV7Polz4kISkkHPN2o7AgAJgBDEzp2L2eX5d59rr2YBBjAJo+i0YRI41wporYR3QmHkCHJbHUhBT5bgElSO3iudEkSO+RnL07K+VH2OsLWpZ7xi2u7saqrrF3Jt4DzSclSmxmI53jw88eHnjw88eHnjw88eHnjw88eHnjw88eHnjw8W9avqAzTBaRvyzGEAbiEkSZV0fsxRooookGPpINhWOY97JVNI7YMObGmgQgvluc1jXOd4lExLSImJaRExLSImJaREwtjDcF7E1QqVsAgpKWkRMS0iJiWkRMS0iJiWkRMBKAdHIPo1T3y+6VRFTgthqcCY9xwpH3Cr+AG7dOj/gnC3mgciNUWz0Tk+HMtLhNppGphNy14eP3FSLwhdvuFiiIkbUQoVDWAxDExGs8mxezy/LbVkewrixTQLqdr5EhWsaXGkCR4ct7MdWFHvbuENiKjG7jDYioibfCRF4P2OM+U07qvYYs+X1GYqoicVtdnhwv+EFDUTO9Es7HDfklzRFRIU1ei+/JB82qejYA+mzcRpauOlepmX12J9rJlRvDmxw2UtZ0XtvJJkhiicQryS7uRgACjjQY/K5rXtVrjxpNUfvUSusgzg9ZnTOLJNrdzOZjLiy+t9PKKSvRr+mV+lkfNolRrpCr0ap75feZURcNWV5EXtX6rrpPrXUNZ44PUdbH6CpqsH5bWNanBPPsXs8vzSI0eQNRmPp6he4takzcoCcHpuLB/CaLc9cVPxs2vWHJnNGsp6rt+sNTH7pU8eEddh2Oav/Zsodgs14z66irq5OIeg35Jc0+7q4MeaOQ3Y6V3pZTYUkQmg6JsocOJIkk10s8RpESdqxjHo4pDRWFlac2eRnbAjU4Y9owtJF7+E0qKt3esmVD5pKyG+b0Vs2EKKNhfEYOd/h5KZDksjua8UJyyysZDrBx4IsdXQ0nMks4p0zJoIYVIVrZdzI7QohDCNoxx7y3mnsWQ048E49FhcT4gaRzuhURUVFmQDQi96h1VuGcNGLxTOKYlfF7tYRSOAx09stXQIKiUbYUZkOMMDeKZxTOKZJczusjyTbA0e0p4rLaeaE6sQaW1uRtxIFLtZrz0oYaXzwCsklSZ1zXg73La5r2tc3opXsYp1esuMnqtnXp66i8Zbq9c3pPJBGYryyNzpxL1AJst8f4Q1lb0b0SDvBE4r4bu/wDrhvcdVTPGNyB8TD3VAp1Ztff081OAPNsXs8v5Ml0UbeJZNvqQ1d2pb3QuP4kvv+n2Av8AR1TgOJZ0B1RAJw4fDyG/JLmo1FbMiTXyDajQ8PiegrKxWmi9F5DPPjAiMfSpEsa6XChhtqmMSCDwkkbWDVoTVkt1fTvDLDY242RSiqXFsNhWTUMmMrIY5nQLVayyb3k3IdNnIVPi6DUZyBU47QalPX/H1Zn+PKzP8e1+ciw+C9SFAEGUkaQxjBsaxmUURTS9ifl+0MKxJaSYsevsbe7S3r4UaTt18pGIJdS1NC3qrUyj8v1dfLSVVSYXRYhjmmdlEFogFGxS8gRM5AiZ/j6Fn+PoWf4+hZ/j2vz/AB7X5/j2uzkaBFb3lvTfSY8W61wx7idDneBPiiHRkNfsnPFKmy9SbPWKdI06IG0uIk+ukw4UUCR4wAp0eAxLhf8AnTQKlPVdFpWJxXS4oolpeADiqiIqrM2KZNkvh00fUmmch7KPAgxmo0XmeIRE4PsdWqJfq8OxUC9YNReQ7aMhweTYvZ5fmky48UTnlJtJ5b1HUrT7PYfilg0StX8Zw6xRhT4MpatPpdV16IiKSjqHoqkNptIbH6S0KK+CibhVpldtkGQRI8hFRU4phvyS5oiokKavRffkg+bVPRsAfyrSpDPEjshzzQirEmoqLhqGiOV5SrW1ynYdZVdXzFYsocaOIpSsbAgNEITYsKHDa5sYVXWBOsgWTZ5ZZe6Q6yqFAZxX5Mr9LI+bRKjXSFXorLgNRa3hit3urb67BusWZFHFiVFZGq4QhC6bGXMBYBCF86SKLMIsKylI8XCNbzFpxlLHcrwDc7oVEVFRZoG0uzQzx/JsXs8vyzZQocU0glfVydiIk+zFHCFiMHjZ8bvbo2AmxSPOmKULURVaUKqiJVWY5kdz1QwVReDXtenFuWtFX2UdWHrJU6htB1kzDfklzRFRIU1eifGJIExGeEys8JlZ4TKzwmVnhMrPCZWeEys8JlZ4TKzwmVnhMrPCZWRBODHYN3yrGtjTw8Hgkyas6xZbXNc1HN8qqiIqrKmHsTd0h11aGALg35Rmq8Bmp4ZOzwydnhk7PDJ2eGTs8MnZA42LHvi+GTs8MnZ4ZOzwydnhk7K2McHbdp0auxpLu/RygBmwUo7Gue0Wu7Gw7O5zemXAEWUyQ59GB7TNKGjEJzFeSjiLXAiKxiDY1qdEubGhicQ1cp7+4ZYP8mxezy/LuMU5telIOkmxpNXGeHodDK+ynERkaR15hTsr3GkwVKlaUcPtGVUR43MYjKySyoF2NAI4Yz+16N3d381XBiprmxI1Fx2s7H1V467TOpoTgO+6mQY80DhlYSXTH7A4yMKxr2dLnNY1XONIk2x+7RoEAEEPUH9ivouaB+hnfJ1T3y+6bbXq20RCPQe203oDeITVQcqNe052oo2SI7k4t67c6zcUo09Xz4AUVSSdupIyrnMNxY/hrAaseUVp7kYxiY1jPJsXs8vyuY1zVa49TbUEl8qqrtvrZa9mVrmuTi3znlxY7FeaXtL5SrHp6SgfEM+bM++lxwSwqEr2S6OR1XBMI42kHhCMExz3vfKuZHYhhwwQgoMX2T/odmg+3zPk6p75feU8SKZOqSbqdEReKk06kZ8WrQ1jPTwWuXGatUG+oGm0LOGRaSsjcFGiIicE82xezy/PY0tVPR3av1CdEVVrOG9RPVuybBH4ofnY7frXeWqmc5zn/lOutrlr/wAKwd0lrwODTIiqhpseJGjMRof4AoQnE8ZZEaXSH7QbJ8V8ZT41sq7kdVsWKGKJohfZl/LfmiORtZKX5Oqe+X3SQoxNV5D7jER7gwETdLD4tTVJx14zG6DT+pE0qjbi6XR47RKN+F0cAURY3g+3wvjFZstvXrwtK2/rbJnWj+XYvZ5fyuCZ1G51GZ1W/wAMQbCMcx5tZckxEYAAo4mjF9pI/JJmjr1aqRkUhDrNc2nlyDRzKeXJmBuYokjlcOzJHTyap75fdFjPBXxCyCxK2w2NzZljFgxIg0YHH3NZHOoSyZoIsZTKCxiuUSL1m8eGEMwacVV7E45CsGTAKZrmtcnB1rqkWS5TxdfvZiSiVdj5Ni9nl/0qV+nLmj+0HwcI7XSepEq50MR2Ok1E486NIYCO9pyFf5G020wbSxPB4b5mxJsvCB4mPqdm3qdBJR49xMalnxe0yGFG60yIeSVxe8kTCBOkOSZJUiYyepBa+1zK56P6Nj6vjtIkfybF7PL/AKVM/SmzQ/aSfLsa4M+EQBodnY60RsWfBsIEwSPB8hzmtTi6z2iLHcoIdFSymyX2dj5Ni9nl/wBKnfoz5ozkbTO+YUQisVhJunw+2UsJWbnXO4MZtdqBEbLZvNSzghmbzryJjd411qfB29USMVrF3TtP0y2e2y/hHTW7SdwWzg09fXN4RvLsXs8v+lTV4Q5Dl05jx1CNd85URfV8SK5F6y01a71Skq8bAhM+lBjb9PyNi9nl/wBJIQYmOe+VMk3B+wAIkyikcUiygSQNKL7vYvZ5f9IMYUcbiEMeVdSOoyPGFGEgxkGwrHMe9kqmkdsGFPjzANKL7rYvZ5f9HlSgxAuKVzpd3I4qEIgDaMfQ5rXtVrjxpNUfvUSvso88COZ9zsXs8v8Ao02aCEJSFYyVcyO1MMbBMaxnkVEVFRZkA0Ive4dZbhni6q/cbF7PL/othZAgj4ujxpNqdZEljGsajW+efWPE/vUOpuBzGoIv2+xezy/6JZ2I4IFVYUA08veZSIjUREzaIaPqrGY0DYsCuopRpV9EjEkNSRfxRTe5jHfV5K5Z2QrQUsxQL0WVZ1lWRHpbfvbUAe7NNiwmSI13OnRoyshVVw6bYva37PYvZ5f9Esa6PPDweCTJqjrFltc1zUc3LuOaVS2scM6qnmqdZAwmvEDNs1LEqTRtjGcb9bsT11gNaWsCCWWT0OcjUVVkSpFmfusSvrwQAo1k2EKZGUBZVeKQ/rFZWRY1jLnC+z2L2eX/AEWZBjzQOGVhJVMfsTjIwrGvZ5nvYNjnvKaTbn7vHgwQQgoMf2+xezy/6NLiglBcEr2S6OR1XBMI42kH5ClGEbnvVZV1I7MUSICGFBC+42L2eX/RyhCcTxlkRpdJI6440kUkSEH0HOIA3EIxku7kZGjhiiaIX3Oxezy/6QQbCMcx82BJqCpJjQ5gZY+uyTJFGEpCAjyrqR2hAhEAbRj+62L2eX8h72sRVdM2uliKrMXbLE/wgNl75I+hYu+l9fC93xIe+i+lZO+R+CubtdtGVO/QtupJD0Y9hRkajmfyytRyK11jVmrn98hw4Ui4N3iQMbBMaxn3exezy/PdbCKA9sYANdtrZUJbRKSshIiBRrW+nQqonSqIvrNpaya1e1NrNjWqpaen2VJR1hTv5a2b/wDFTFzT3cdeiKv3mxezy/NLKooxiJpsUUmM+3N0PXqscuRO9SuzlotiTvHarNnHkugubFtjOAFI4LuTIBHeGKdh4wjN6NxrhOgLOZC/6hVTooVJ/kGmyl2euuCkDG/k7r2qbmj/ALcife7F7PL8xRtIJ7HVk8mszn18oZBkYjmYvDgvFxqlkhXIpaPt+0x60LisfkktUEAmRgJSsiRRZGUKAH2WPe1iKrrmxJeyEqq+PFBGjjE3qMyrVrd1u/vWGA55WJ3mK0IzucYLCDG77S69qm5o/wC3In3uxezy/POgw5oXAkP125qnK6qZt0yCvUsIu0UMlnBfANNkvUiJqWpr6LqGrcMdqWqImE1vTBJxc7YNfrwMCNduNJcrK5KW8tlRbKBWw64KBjdFX+97v72YKQC12KfGUbJ9HTwHQzy5tpS2Mj7S69qm5o/7ciZPsbNaO1sI2CvDK7i+rllkQEeX7jYvZ5fyXNa5FR0vX6U/HtD6LRu4uY7Ro7E/AujLi6MBPzB6PRtXi8OvUsVU7FrGMTg3yVf73u/5S69qm5o/7ciY6oasGygFUJe/NMjqiM2Mo8rYjocNgn/cbF7PL+QWTHAiuMfc6gDlaHmi5OnCKkjdTpxZ3Xei4kLeW+nW3oXql9s8bihxbzGYqNmQbqrmsasfyVf73u/vZk0EIKkKtlcEc6YOttAzw8G/aXXtU3NH/bkT5hpkOKivkG3OF11ZDS12uX+n7hu0j8Tl1/aV+tdZ2VE44uv7YNOKd03eN6JsOyQvhLh7rVmegziMErEcPzbF7PL8znNY1XOlbFNnSXxKePqSHchLWNV18EaILgidKqiJxXoLHjkarXztOqjcSiefY9eXiers4tjGaWN0Vf73u/vJ9gGCLrvBHk2p+8ymsa1qNbNryxSpLhVVsKczqu+zuvapuaP+3Iny7HYJZ5bq+piamMjkNaBiRY7EaLpcRjFRrumbW1s1qsNJ1ifWr29PQ7J30r4sry7F7PL825yDAiw4oqyti1kUceP0RrGT3u0aWFdSHwIuLeOV5kFPt3uhGaobckeGimJdOEJjiQJg5MZpUxURUVFlyI2qbCxzV32o/wBc+1yems2QrHbLeQz7qyswwB8Viwz2Bu9zERERETosKxyP7zEqblsvgE/2Vz7VNzR1/wDr0VPkXG0xqucyG7nYeWW7IsE6D1SCCLTRnp0SXuGAj2xRuaFJbxWBwk7ctnLlpICcpLaW0BixltpruJWMd1mNd07rHHESHZhavFEXy7F7PL820VRJ8FihoNlDYB7EvR4SFjZvWFQMZGjiEynAPvbkkUoDgExzaMfZPYSXURzhEx0YDYwGibk2dFgAcaRViJf27rM6QYaeiRo6elUjR7rd8MWdLXO/Ss79Kzv0rO/Ss79Kzv0rO/Ss79Kzv0rO/Ss79KyslGJIVr+iZJWOkdEh2Li2FjEfKmxITRPkgtopJERBeW0thQWdVINeWUTvczy2VX2yqYFVdKRUjSvIQjBseR4rYCSa0LiEYJjyEWzgMEQqdM9Xthmc3tzZ2587c+dufO3Pjike1WuD/wAA0GHtz52587c+dufO3PlU9z4xFdn/ALEj9EuKyTEKElPbG10qVdiMjCsa9mO4cF4tfSBO97RkoRFeRqi1t7nOfY+GSFEwSuonPG9RuY9jXMyXMjwxOKfryNpsQub5di9nl+e41mDYKhmNkbZT/heHeqpF6kyLb1UpOI0c1U4p0cUwk6JHRVJJ26gAqtx2w3c/8FbH1cskzZFswbBMaxnRV/ve7+dSfrem0jvQtVJH3aVHsLaa0sGbLFSkKlZJFaMV3ktrhkRFEKvrHvf3mX57KsZKRXsqrl4CNizkVF6beGWXT2QRPE+fI1+YCV3mwq7wAretMETlYxFa1qL0W3t5+g9rVxiqI6y4rY/eXSbOtiPQclLCAoglQ8iPGEpTyLGvivaOQ6THY0TnYGQA6OcHxSs7dQdFD+nN0f8AsSP0z4ESYJRSHa3a1qqSpZs13B+FiLdteKzsijqtMlvV6JququT8C6jrGP1fUmfVIrdHjcVe3b6EAmBhrbbNP/DCBqrzlae0CAQWIxnl2L2eX8mTXQTNXtpGpa+VVXC6lXDVVEtAjfpSicvqzVY5frBplG1EV4KWpjLwA1rWpwTyFuxVG53DnO3nroqN6NWMY9HFIaHPmeBUBpE8jAQ6d0LYTGCyp7K8nS2T3mBfyhtnUYy2UySKuu3QTEPYWx4LWEPW3EKGueJvrOBmc7SsTdjoiJnO58bur2+i7wTOeVxd5/8A3z2mJvQ0TCbS+UFWgratWKh5HRfy1BaxWTkMyDACoEv67w8s14rUhBHI6vtAz1kMTosK4cxnHItzLqkeE6bqz/Sbu5Ppfuh3pnOUvgiIzb57fR+3Wj1znC6/1zdf/wCk2vZF9FvL2WiAk4MxhbLf9ntiqurT1WYUo9sco78BZracDLyYtvVDRhZYR7Kx5XxTxYdGhbmcldVzJWa0eBFsSQYzZI2QNhCWIJwYscTvGbKvd1I/Ok9v5lXbpYb2Aq+RWtcnBT01YZFUp9P19/F2E0WnTF0WoTGaVSJ9QNW10KcUFBhB4dl8jYvZ5fnkTIsQakObbUM9R1nU3Od6t1CwP+qTRan1KmiUKevIlAqY/Qaj1G/TpQE4xu7bnATiMe3SYr0ZaQrGFMF14/TWMa7drtF6remGG2qYxIIIoJNPWQYgFoppAzTNOGwtDwENG10MoUwthGrLJSaz3i6pp72XYoUmLNi2b58QMaZLsgTpWUqIsxUXgmdVudVudVudVudVudVudVuKxqtcmSYZ6achXR5ApAkIPonyponowTKO2jQ4A1ia3YggTEFZrdz4KIPXag0C1uj9J5Ao4nEIIEi7lddQgEATBM6rc6qZwTOCZwTyW3t5+h9TPZZTpkWXVTJ4mglS6qY+17/FSukPlV8mSHXgBj3AUjVShsRzFt60tgyH2RKufK7BsyZA7zIgHQFIxkK1iviBeCLHC+ja1wC8eCZwb/kOOnlm3tVBRe3fuDjr1a/v+7SfoWs3A/5qatfP+t2qWievKt2n0LS7aD4i7beInq3bLCKqd/gbTSy+CDRyOTink2L2eX5r67ZVAYjYWtSJr0lXQYwI7EYJ72MarngmwDPRo5MkMQXam7RqO6uQ5sc6m7PpKIZWq0ljqfZKsqp12/JNcWJL6Kv973fzqT9b8oohFE8ZJcOVSyO1DFlhlCR4/PJlCiiUhI8aVcn7UohDCNox/Jtvbz/Nof05uj/2JH6ba6h1IUedgtjvfxkh6rURFR7mDYNODfOqIqcFm67Tz+KvJUXtQvXrqTZY1i9QF6di9nl+Z7WE3dGSOh7GPYrXRRpHbsJY5JMs0KS0r5dg+yVuVaLHgERyHknNHDnfiuYojVBiFi8X9GykmxtkrS1njm1s/NZtloL83WZ3fdpt5C54RC6vWd4LBzwWDngsHPBYOeCwc8Fg54LBzwWDngsHPBYOeCwcFDjgerh/Kexj2OY6fXHqzd6iQpwpg+s3yzJgoguu+FBkWx+8SWMYNjWM+U5rXtVru6xc7rFzusXO6xc7rFzusXO6xc7rFzusXO6xc7rFzusXGsYxFRmEKMP/AFBjKTv8PJVrEEAj016CltIJdS8VeCKuRLBkqCGSgbOGbrtGOxhoN5MlWzerBWKlzDGEKnWwhtIxjnzANJ2WOthsjo5X2kESsY9rmvajm5tNI0wVnxaOxbY1MSV07F7PL82yUhZyBkxanbGPekSxRzXJxTEYxOtw7AKIqIoRK7rqoRK1WYghpw4LHC5OCoiNTgiqietts8SEvYAoKiWw5rKwxURfWqRE3W7Rv3KoioqLZ1RIRnS4MCxHMZ5J04UMfF0CtPYl73MREa1Gt+6tNZrLOSkiRyHS5J0Wo7AyN0qawMFap+OTi1yZDBbhhBgkFVyyJwI+LNdCcFsSknDIrntrrIIIIW2dTYyicWR4UqO5zcBUzYzWubGqSBOrnVgCRq6KAmbBZhr6073atEfA16BHf0bF7PL89lUV1iPqHXXLmtdxq/H9lgqqTBb5WNRGnFt1G9vBqbNSu9F2WlTDbbRswu+VXBWgTYb6YvCD4LsFmvGxrqGurG8A9NX+97v7y0pnscsyFXWbJaIx+WFiOGzK2qLLIkuaicPv73W3yJCToEHbSxiJHtwSo5mI4XyXlGNFV9htUUL1BDr6KbOlssbdEROnYvZ5fyXPG1PxSbCkYjkLLnaS/wCtx9CxptCyJJ0Zv0RpNM9OAGuaqfDy1f73u/vbakUq95iNvCMjuY+rp3Eckub/AAMyHFlCcM59NBHVxK5E3iAuM2yfEXhMZv8AUej2btRr6s3Gha3OdKJjeCE3ylTF3Ex0RkR0nd535Q9UkS142kGqgVw0HF8mxezy/MqomWG0V8QihGhNws/y0015vxTw6dQhTi4WuUw+HBKer/14NUuTDa3ROT8R9Lo3qqsXUJ8X8Vd4lttV8JlXs9bZO6jemr/e9399tCIGxqysb9Kfwqoi4+LGf9TqWpd9TqSjxKOnb6NhwxJ+BGonp59i9nl+afLn3tgWug1lHX1gkYDJVlAhOYyQkkPVG5nShm8SJjCNe1HJ0XOsQbBvXyhtp0ea+ptOir/e939s9yMarlTedcG5yKm+64iYm+64iYm+64iYm+64iYm+64iYm+64iZs+1UktKxQM3zXUY1MTfdcRMTfdcRMTfdcRMTfdcRMTfdcRMTfdcRMqdlqrV7xxP4vYvZ5flOi9iTho6iSJKG/ot5EUF/BfJlOM07HgEyY2minZHJL7oPtZD2oSKiqU/bWCKztSnrwjpnkTvI16NuSQe4pxwEhbt/ruW7ZQUtpCs5k6d9rP/RnzS4EM1OjyeEV+eEV+eEV+eEV+eEV+eEV+LW13+/CK/PCK/PCK/PCK/PCK/PCK/PCK/KMQxbjaNH/F7F7PL81vUT4E91rVU+1QJqdQiKipxRWovrwTOCZwTOCZwTOCdD3sY3i612oIn92g0NJIAYs+f9xMeJIR80Yg0pmcUVF9PlqQbfV0qMnrVSo7NwtHq2THcvwR7Hen8TsXs8vz2Ou1Vn+I7te2OA5fDm3+xQPhLHvcJPwlDulE/wCpm10CJ8E2mhZ8VfudIP6eeY/HhH8U2mf8IrdatZbuNrAqa+tZ1Iv2jyDG1XPnbfVRV7MS3mxz/wBGtXux/iTla4f8TrpBHoqPHog4g0YJ+o2Qk4i8E3EH5CT9vgLxPF3aJ10FLjzIskaPB0vewbVc+dttZFf1BJZ7VY8EiLQ7Wf4yk0pX/qF0aman410PXmOc5H6HU/8Ajfpphce7rT7jF4qBL/Yq7gk6u2mrsHo1yKioip/C7F7PL+UQIXpweWlqnfF79co09Xa7SDTijKuuH9LRjYnBv213fAq2MY0NFaXCoa3hVNfBajQdLXI5OKeSTDiyB9U0zUewIsiqqNlkskpXWuXFxGqYylKGqtr5UPZwqqvgMRsfpYYROt1PLZ65V2LVQhG3eruR7K+dHs4ozg/hNi9nl/wrl6rXLmtxm2NpZWJui3kzGXLY4zbEOIdgFj2RjGVA01jKBFAx7thayUsVYD7BKuPOITZQiO0KMs3EYi4nRtlWCVWmNmuynzaiIdyiZY7m4Mjo2NriWtYJZdpJiPGEA5smSTqpHlSofiUhD3Zo01EwKvLOlKNlnPaGWd0e1sSx5CLXnI6IxSY9jXtc12uf9he3EAf8JsXs8v8AhVTimdubWLo7iAOEwmkFjooUmulZKqQkN2qOrmMKhGJURxAAPH69F7YZFi0g4zWjU1SF8lCMWAFkvt0xVRE4rfWr7EqVNdBishxAR2bJDl19gK5iVNtBswNILHgC44zLJgxDuapCQoj3scpK+ErCDV9TXEJ2jhRghV6sbCjDGVMbWwxDeNABGAaDHl1fxawK5rNZJAyRNl/wmxezy/4aTEjygPEZ+u21S5S04tvJFcg7OJf00lrezYUb04s8iua1OKntq6Oi9ofcoXHsoaxtmul4nq6eDVB7ONioipljqTEO6VWtuthqU6k+JuFJJ4I4E+CVP+JFRfIrkROKmsYAPiSRuNSHiwSzNnt/hFq9aiQi95N/C7F7PL/iCiEVvVfM1OhPxcpNJCzisZdUvxJxEmu7MxOKrruzYurbI/610oqrxkh0yiAvEseFFipwD5pVFUTOKnkaRUcVUKaXLb8QLq2wj+l2tbQnquqbB6kTSDv/ADx6XSB+JQVdfCREB/D7F7PL/tGxezy+nnDOcM5wznDOcM5wznDOcM5wznDOcM5wznDOcM5wznDOcM5wznDOcM5wznDOcM5wznDOcM5wznDOcM5wznDOcM5wznDOcM5wznDOcM5wznDOcM5wznDOcM5wznDOcM5wznDOcM5wznDOcM5wznDOcM5wznDOcM5wznDOcM5wznDOcM5wznDOcM5wznDOcM5wznDOcM5wznDOcM5wznDOcM5wznDOcM5wznDOcM5wznDOcM5wznDOcM5wznDOcM5wznDOcM5wznDOcMn7EkyEWMn9p//EAE8QAAIBAwAECAgMBAQDCAMAAAECAwAEEQUSITEQEyAiQVFhsjJSYnGRkqPiBhQjMEBCU3KBgrHRUGCToTNUosFDY4MVJDRzlMPS8GRwhP/aAAgBAQAJPwD/APZ3kd8fyywFXqBuqjNIfIUVofSj/dij/wDnXwe0z/Ri/wDnWiNKJ96KP/508sbeWoq8jZqYHl+R3x/K8qooqz4qL7eatKzTdaA4WrJKgQDzUi+ilFIvoq3Q57Ks0FaVmi6kY5WrQyR5wZ4t1ShlO8jk+R3x/JFzED2uBV9DjqVwauf7VdH1avI/zECryEr2Opog8qZAe1hU8frCp48Ipbwh0Vz4Vci3hO4AHfQwBuHBuAyatDxXRLrD9KY5A342E9hpvDnKyEqcYCk1ISZFyWRadsSgEELnYeEAgjBFbLZ5As8I3c84yKOQwBHmPI8jvj+RZ1TqBO01o5gn2svMrS5VT9SIalNPMfLlJrR8XqirGH1BVlD6gqwi9QVHJEf+W+pWl5V7JCZBVmtzEN7xb/VFS6kvTE3NYcie45kwChJSoHNFT3n9dqnu9YowGZ2o6k9uxRlO/A3Hh3MpB/Go04hdz6wzgdlBeJjmMok1tpJOcYpE4q3mZtcttIZT+9FC7WvEkF8AHspFYyWscUmWxqYGMijnVQDPmHDh7ieRBqDeBnaa+pGqk+YcjyO+P5EXWlc6ka9bGmM1y20IfASlAA3AcEcnychRnI5mtR52M1IA3VThM59AqQDO6nAJ3cIMFyu1ZE2UMXcI9devh+3HcHDK0F4m5xuPnqxYAf8AHQZSryN+sKakKBlIyN9aWuvWNaWuvWNaWuvWNaSuTWk7o6rAgFjR3CryND2mrFtQ/wDHkGFqUz3j+FI3J8jvj+JyAOJLv4jLqj/gOQYzSOiJcSfGA6DnwxAFilSA2YgkEYAHOkiZAzZ/Pj58fIR3B1/zYApgVIyCOFyIHvC4TrqBwRcJkjcULbTUTtL8fRjJn6mahbVFtODk9JkyKgkMgiOWG8Nk1DK0/EoHB3Aih0cO0QQjjSOH7cdwchAw7RUHFydDISK09cInisFIq8tpR2k1Z2z/AJmrRVr65qztU/MavbaIdmSa09cSDxAFAq215PGck0oA6gOV5HfH8TMhSa4ln1gQGV5GLHVNTTSbJwEdgVAnABHmGNlNJm1iljUkjn8aQzFu3I+fUMrDbSPdWPQR4cYqdQfFbmn+/IhXjQN/JuETHbUDKh2NcuMAUxeVzmSU72PD9uO4OROqdnTWjJp/L8Ef6qngtR5iTXwiufMhrSdy/wCeru49atIXK/nr4RXSdhatIw3KjoYNWiZQo3yIQRU41vFbmnleR3x80QKnjH5hVxH6wqRT5j/B4y8YODJn9BTBlYZBH0GERy/apzWrTWsviTAvVhFcY8RwlaCnX7p1/wBBWibwf9J60bduOsRPWhLk/eBStDrCD0vKDWlY4EPRGu30g0ZLqTrlOvShVHQOR9uO4OFNa4I58n1Y6c3dxvLSbQPMDShQNwHBKqdrHFTIwHUwPATrsNg5EfFTjdKnNNPx1s51Yrn/AGajkHkeR3xyjgCmNxMPqRDXNaMSCM7mlbB9BFab4sdKpGK0reOf/NcVcXJ88z1Lcj/rPV/dp5p3rTs6/fHGd40YLsDrwhrR8tr1uASvpqdXB3sp/gJAAGSTWeL+s3jfsKGWO9+nPZQMluxpwysNh+iDJ1DW8SP3j8zazSlpx4CFvqitBXZ88ZFfB7o+sxFKBdSXEnG9mG5CZ1ImxQCcbbZOBtJq5DRGPnOeujrlSQvmqfjkKkk+KerkAc2J3HYwGRXhGNeR5HfHJcKiDJNO9rYZ5iL4Ugq3UHrIyeA1KGC78Uc4o86MIT+fdyI1YdoBqdoJxt1R4DVHxN3F4afT2CqoySaBWAbz19pobfrN0k8C5U18pbudoO4/sabIPpB6j9D8U10Sv3j8yoOJx3BQ4IWltZTmeIb17RVwpI3p0jhGQRtpBsGBUYx0Co1H4UgXPDMqKOk0jxaNVgzTfa4oYVFAA7ByPI745P8AhvpCNZvuaj0ABqjGOHwdf5T7lLmUKNwNSvLGFQhzvBJw3oFXDyZezGsR0Fjmrh1la+VGi6NTJqVzI82JYuhV5ESvdMCGTrXNaKhrRUGAKhWN0meMoOtDwKTk4wKgb01A3pqBvTUDemoG9NQN6agb01A3pqBvTUDemoG9NQmgRnO/5xwqLvJrKW6n/wCk0POeknkKGU7waJaEnaD+ho+dekfOHAAJNSf6TUn9jUn9jUn9jUn9jT7SOo0NRzKxA39J6qk/sak/sak/sak/sak/sabON+w8P247g4RkUTbTdEiVKl7GPGzr1oW4h9UirgxN1MjVfJV6lXyVehj1BGrRdxcHswO9VtHZIel9r1cyXkvl7hSBVG4Dk+R3xyRselYw5xHcAZBHbUqMp6QQeC3kmycYStDXI/Ka0NdAfdNaGuR+U1o+8OCCF1TjI/CtGzRP47g8BrNxcnwY49tHN1IMKvRGnB4hr/O3He4PHPzu/LfrwkqLi6CsQcc2NDIR+OrV1NJGI7Z1DtkIXL5CihEXubsQ5kBIAKM2dnmoprpfS2MwTIR/kuODhTnkthRWUt0Po/c0uFHKAIIwQaY6nSOrsPZXNkHhqTtHIu54pBPcFOLfBAhYxBeBLc2p0m9lqAOJCDKYg2akLPDNNAX3lhC5QHkfZP8Ap871Lw/bjuDl2yMK0VA35a0PbepWibcflqzjXzCgB8x5HfHKiV1O8EZFXkts3iZJT1atobqPxlIQ1ou6j80bNTun311avovWFX0XrCrsP93Bq1upT2QmtEFeppW1K0lxadKQ83+4qAa/TI21jw+Iauo0f47PsJHjVfQ+uKuI5GBJIVgTw+BFGzn8oqZ5JXiiukLEnAkGHQditUryOXmyzksTiVhV7efGI7Gdg63Ei5KaxBODV3cfGdJKgaSWZ5dRRHruyByRmru5kSKRTPHLIZA6McHGtuIrS81vxRgFui3BTwogTqpnDUmrcmIGQdvDPGrgnYT21dR+mriP01dRpJDMssbZDEEbCCO0EipkSa5iEbyB87FB1TjPRmijLaFWi5+0MqlAfQakUYkeYpnOZnUJr57FGKPC3mHSTRKwKfwHYKUBRuFaIgeO1u3ti8l2ULFOwRmhg8NokUl3pGO2ljZuM1EcNuK8IokAbSo6P3FYSUeGOvtHDz7e5kdzHtXHGbWAI6CdtOSywGJR0KGOSRUQA+MfGckt/ja/Ga2/rpy2rksx2FmY5ZvxPIO3im/TkKhS6acOSDkcWmsMUqH4xfRwPrdCuCSRQtBDZTyx8W6uGcRANnXBoQxm+ilkJmQvqhFDYwpWoQZ7SaOLEW6VpQCgXNRWrwLgzJEGDxr0kEnD4o5BGQeEgDC1Mg/GruIfmpgymcdwciVUUdLHFGWd/wDlIXrQreeQ6lQ20P4h6vLYfkFX0HqCprV/ygVouKRetJBWj7mHtEZarpGfqyM8vyO+PmQgHSWFGx/MqmnsfwVKls/QtNYeolS2v5AOV4hq2Rz8dn71WtIyu2UOWJ4UYxS3EfxghguIlOsaSQ6rtHOHmd/knG8cYx3GrAToJJTbyiRVUCQlgHB27Ca58osZIl6NZ2U1qreWSxlVc808zUdCRVkbW3MimdmkVi6oc6qBCd9QKYLviRGTg5Ai1WpcXCRhH2g5K7M5HDxnGPvw7AbNlPP/AFHqS4/qvU1z/Veri6/rPV3d/wBZ6u73+u9X17/XkrSF7/Xer+9JxsHHPTyIAxzxjFmz1ZalAUDAA4NMXNrjTM44uMxBTsXx0NJDe244hOJL4ltznGtEOktmljeaC5At4pjsSDUBV0Boay26WLxLnmhihw1OUiOnG12BxhdeagAx0bcSXKQnKrgjUk+/Q0ZEmuDLJDdySvcxFduQUGseFWLNsIXr7MVpG7D454EzkCtJ3n9V60nef1XrSV7/AFnrSV7/AFnrSN7/AFnrSF7/AFnrSF7/AFnq/vf671eXhaLngNM5BKciVY4le6y7HAGYquY5kGmIAShyAdVquXSf/tGYpGsj5IwMERg4auMine3uzJxbmJgQq+JSNLNo7SMNyg+vMmyQZ6zTma6uYjEIgDrJxgwTJ4oFHIjjVB+UY4ZZk4rdxbsmdb7tT3J88r0Zj55GocxZx3eDcKhErqcSTHwEq8luJfFyVSrWJfMgzy41bzgGouKk8aLmd3FOb20HhK3hqKbsYdIPJ8jvjlSqiDeTVg9x/wA07ErSfxdT9SH3hU807dbsRVmpNWsWPuirWHP3BVnH2DFWup2gmtKXMHYCCP8AVQS9iHnD1G1vcfZyUcjg8Q1/nbjvcHjn53flv1+awkwHMb/Y0CNXYGPRwaIspJHOWd4EJJqxtzMgAWTi11gB1GrKCcp4JljV8ebNQRrJIFDuqgMwTYuT04qzgEcbl40EahUY5yVHQTk1awwhjkiNAgJ/CrC2SY75FiUOfxHACc7Cw6aw0xHOb/YfNfZP+nzvUvDE7g3QGE+5VtOKLpJPKkXmDnBpBsG09LHkHOtDI2O0Cr6R5BGWCOBzSOqtISzGTOsHAGrs6MU/yrqjBuvJreV4RRwl5rI6DdleT5HfHJOERcmiRb5zBb0gVRuA4DmVRnFOuYXCNrHABxmpUAO7nCpU27hkUwVhLImrkZwhxUqesKYEdh4IQepukVKZbaU/ISnung8Q1/nbjvcGAQ2dtFKKUUopRSilFKKUUopRSilYyM7u0/N81x4D9IpTqDcertHZRBBGQRyjgCgdU+E3X+wrnSHwn+b3mNgO0kVbtVu1W7VbtVu1W7UDIqMVY4xgjz1btVu1W7VbtVu1IVzq8IyPjA7gqNaQLIjB4/vJtFAxXcXNZT09o5EhDqjKMeVV1LLrKVBbGQD1VdzzBM6gcjm1IwWLAVhv2UdgGOGVVUDpNRlbK3BEGd7E7zyfI745I52+iCNQcK42qYz2gVATE10GdMZ1hqAVFm341yEI8FCuwVFiZdI4U9UWtVuUnF3I7ORvjLk4zSok+u5kLLrZXJpgcsSoCFAB5jwyat0bhXBG9QK0+1aebFT8azSu5ftf6Wv3WG9TQLQncR+q0wKkZBHIICgZJNAiIeEf9zQyx8JzvJ+h/wCZf9T8z9uO4OFSky+DKpwwopeW4/LIBVtPbv5UTY9NXsWe1wKmQ+Yg0woinWruEY6C4FTGU9Ual+7WjGUfaTcz+zVdG4cHIjXZGKUKo3AcnyO+OSMgigJbZ2zJAT3acwTdMcg1TRBHzEyxoOknFQG4m+0xiMVJxt7JvboXsH09Mp0dYPXWZLZ2OD0H9jTZU8DAKBkk0CsCnaT+poec9LH6J/mH/U/M/bjuDkwo/wB4A1ahD1pzav7qL/8ApevhJInnmavhQ/8AVNaauJPu3DiuNl+/Kz1ZxLjp1Bmhjl+R3xy7dc9Y2GtKzRDoVsN3qS3uFHaQ1aCk/Jk1oG//AAjrQWkf6YrQN5+ZK0ME6i5Iq9htweiPnd4VczXL+UxAqFEA6hj+AoGVhjBrL2zmpAEG/rB6q5luh9H7mlwo9JPWfonVXTO/ePzP247g4XCqN5NQSXc275MZApYbSM/i9aanfrCgCnnc9sr1A34u1QH1jSSr5pHrSNzEfOWrSYmHiygCtFOQN8kXOFTq3ZyvI74+bUUo9FAfwZQysMEGpcWx2nxh2UgVV3D6L1V0zP3jT4ZXKjPRTAyRzNHkdlOvESxscdPNpyQ6lh1DV5P247g4DhUHpPVTtHaE5jth0jraoFRRuwOCf5QfV1SaGsMZx0mmCM4BUE9dMM0Qdo2A0RkDdSFeeyYPknFKDTfFrobQ6UuLqMZD9Eg5Pkd8fyV4tdMz9404Ac5Geg1eKxkk1+bkb99XKqIlIwQenfTAk4C9g5Lw6k7hsMtPb+qaMRtvjcWvqDyxWNXAxjq4ZmRWk+xds7esUJGkIHFaqnGKjkKx4Uc0nGaD/Gc/JHVOrq1xnHfGVA69XIpWzxqowKEnVJxnNAr8vL3uH/GDvrfdxyfI74/krxa+2fvH5tOa4qN5rXdHOozqjqarlXyPqkE/MkAUpurk7AsfOAPaRTBruQYAG5F5Pkd8fyV4hr7V+8fnEVlO8EZqeW2l8gnV9Wnhu0HXzG/sK0FcDtiUuKimj6wyYq6Aq8SpGY9grRV5N1Yi2VouOAeNIxFaUdl+zi5g9K1AF62O1jyvI74/ko4AQ0CDxr94/PgVBGfyirZPVFWqegVbxj8opFHmHzPkd8fySwVVGSTQKwA7f3NEvbudvb+xpgwPR+/0zyO+P5IcKijJJrKW6mlwP7k0oZTvBol4CdoP6Gjt3FelT9L8jvj+R2wB6T2CspbofR+5pcKOEAgjBBoni+kb8dh7K5rqOenSD9K8jvj+Rj5l6SaJWFTsA/QUoVRuHJFEgDaVHR+4rCSqOcnX2/SfI74/kU5kPgpRIj/XsFKAoGAB8xlXU5Kj9RTBJh6G+keR3x/Ih+VYHUWiSp3A72/YUAANwHBdXcU0FlM8fE3EkQyilgSENXmk2e7ms12XLyAyS9YkPgVDPKlucXEsaBkh2a3Oq3uLiY2qXCLCoOsjkjYSR1U7iMSGIoV5/GhtTU1fGzUE0E6KHMUwAbUJwGGqSCOHmyDaQNme0dtE8coyp6GFXAj1Z4A41AxYSSqmATQaO4+NW0SyOgMb8c2MCjqxCwidoiBlJuMdHB9H0TyO+P5E5rqOY/TSnU6D1do7KIIIyCOBNaWaznjRcgZZ0IAqDMlreWEk41hzVh8OtHXN7FdXLzI0N68OBJvR0LoKt9Szj0NFaodfOGSQnUqPVkGnpr6JONKcbGW8aM5XIrRV1bSiLiw892bjKk5IHPfgIAG8mgdTpPX2nsoZc+G53miwBeN+bv8Ak3Dj9KnmPy8EyprDVVoDkYHUemtZZrlEEgzzeb046/onkd8fyKv3WG9TQLQseaR+opgVIyCOWwCgZJNAiEbyf1NDb9Zulj9I8jvj+RlDDr6QesVmS3c7D0H9jTZU8lgqjeaBSBTtP+5pcAbz0k9Z+k+R3x/I6BlYYwaJe3Y02R0jpB4WworKW6H0fuaTCj6V5HfH8kKGVhgg0S0Dbx1dho7R4S9IpsDoHSTRKW6n/wCgdtIFVRsH0vyO+PmGAAq44x/Fj55rQ87A/WkUpVpbRDtcGr+2TzRIa0rB/RWtIWz+eJBVtazD74FaGlAHTGC9TGJvFlGoaYEHcR/FwCCMEGieL+svi/uKOrApwAOnsWlCqowAPpnkd8cuMz3b+BEv6mrtlX7CI4Aq2Tzkax9JoAcoA1apk9SgGrxlx/wpDlTUJgvF3odzdq/xfpiat5aTvH6b5HfHK+qjH0CudPdNrZO8Dh6ATV5IiMMiHZgCgOIEvE9uvnFKoh/7QjTPTkEg1GoYq7kN4qsRUaBjDxrhuhc4oc11DDh5k9sQ6NSShyuTzTSS+qazrR7wf4p9ka8aTvfTfI745W5gQaUizd8wS9A7DThlPSDnh0oE27YuMULmtJJjW1uL4xdXW660mmElEoTjF1Qwq8QlcjmzIpwxzWlEVo01SVkXnDqNEFAvNxuxwMAB0k4rJj1hx831QKjUKowoxSitwWPufTZkLRY4wBhlMjI1uqriMRPq6jlgFbX3YPbUqLJJnUQsAzau/A6cfRfsjXjSd76b5HfHLiDoeg1eZi+wl51aKmQ+PGpkFXaoSMESEJ+tRWrlvumrGH1RWjovVFWEPqire2Hn1RV3EVQYCxkN+laLnlbxnUxrV5xUH2MWz0kVEETh8WPufTVLGKSNJ4x9eFrdP7pV3rcatgnF6uDFmAtkNSFWS5+JfmWB+MP4v9F+yNeNJ3quRFqTTcXzA2EgJj/uRwWGpAb57LjhLlg+vxYYLijmaOSWCQ9bQuUJ/HH0nyO+PmVBHURVnGW7FAoTp92ZxWkrpf8Aqua0xdeu1aSum/6r18Zk+9M9WUfnKg0gUdQGOT4sfc/in2RrxpO9Tf8AdriSVkKHnATHWYbe2p2ESwFOLBOC7HJY+YDAppP/ABvxwAsAeM4zjMbt2aYFyzySEbi8jF2x+J+k+R3x8xKqqOupDO/VHWgJsdcgwDVlbxDtLVPaD8TV1aek0lvJ5i1aD4weRk1ZTWv31q7R/NyfFj7n01vMo3saZ1iU+CDzcebprmyDw0+i/ZGvGk73zk6oo66t5btuqMVohYR1ykg1fQRfd94V8I5V7AiV8JZ/Ujr4QO33lSpreYVoNnHXFk0xt5PFkqQMD0jl+R3xyjgCodcg4e4PgLV292/it4Aq2jXqAFDlRK3nFJxE32kdFr60HT9dRUgIPD4sfc+mHLHwUG8miRF0D/YUoCgYAolSpyVHR5qwswG1evtH0T7I140ne+bi4yYbJJfqR1O15L5fgioUUDqHIYAnkWiOO2rxohv4g+Aah4i8TwkbleR3xynKteTcVrUgVFHCQY45SsZ6uYDUXGymESy4IXANWpdY4UlY6wGxqhKCWAtG2sDVuRiMMvOB1qt9VnPMUuNopcAnhyLW7HORRnD1DcH/AKT1Z3X9J6jdFYJscFT4P0vnSEc1KJKncvX+woYA4crIDkqP1FEJMPwDfQ/sjXXJ3j8xbTSyshbEYJ2CtFXn9Nq0bdo5GAxRgBmtskqB5H6WJ4RkgVcysTGWKFsrs6hRDRyoWQKOcoFGN04h2RcYwM7jWoogChwy7yeqmURRMFkUrtY9ldI4RqzxzKO0hjjleR3xyv8AHgbjI/PQ4q8Tw4TvHCdtw+sfPjFSFdRAhbpZRRwJYViPmWmICRlBUhZdXVXPQKALR7iRnFbhwSqiAbyagxaxDVt1cb/Kq3jH4VEvooYAWPucEp9AqU1KalNSmpTUpqU1KalNSmpTT6w1CcHhQM80yxRqTjJO0n8ACatDF8WEbBi4YyCQsAcDd4NS6ivII05pYlyCQAFB6qYNHOZEDkFSssY1ihVgCDjlYaY7l/3NEsWOQp6eVzZRtI3a1HVkBwGIxnsPbyThVUsT1AVb3CveIWjJTmrzS+GPXgU4VEUszMcAAbyTU8cqROiyiNwxjDHGW7ByCQRq7Qe2pX9Y1K/rGpX9Y1K/rGpX9Y07FTvBOQa+TQblTmgfgKlf1jUr+salf1jUr+salf1jTknXwMnPB/kZuAbJFIoYgU4gnO4imBU7iODdV7gnZqNLlR+FXikt0NICB5hV2CSCMGUYANXMQQgBzxoX+3TV4usvQJAFPnFEFSNhHBKsaDpJxUbJo63fWBI/xTyvI745bNDcA5EkdW/x2AfXXIf0Cs2r9UvNq8jYHqNEciZFx1mr5HfxEOTWiH1TullBUVdNO+8RbkWlCqNwHD4sfc+e8Q8KM3xe7DOAMkrIpiJ/DWoBxLbQhEXJbWh1/wBc1xSSwXCTzD8jKQv4tW2M6RkvS4BwFEIhCk+MSeThpj6FrLOTkKf1PzGFlHoasjBADHo8/I/xJLeRUHWStRgwI7yOd2qHhZRVsQ+pPbxZP+IdTH61bqFk0RJZgDG2aVkCLgUc4AHD5PeHBpC2ikG9HlVT6CauYhBgNxpcamDuOtV9bwuRkLJKqEjrwavIDHK+pE4kXDtuwp6TU0cUY3u7BVGe01ewROwyqySKhPmBqeMCVgsZLAB2O4L1k8EySBWKkowYBhvBxV/bccDgx8ausD1Y4PH4P8jNwxq4PQRV8xT7CTataFkHXJEC4q7WEnYVc4NSA56pTSsf+o1RP/Uagf6jVMq+eY1IbjUACiLnVocwof8AiTZWrx7h/E3IKQKo3ADA5Xkd8fMwI2eyoBGesMRWlpovM4r4W3K+pXwvuvZ/tWnp5fzLWZvvOatI1A/GgAOTBJJlY8BPu1om5PDK8jl5ss5LE4lYVcXPxZzL8bnQkyDeEyd4Wr+aWKXStsNfjjJlGOCualdNfSlqjapIyrNtBqWRYdGpFLOoJCvxr7QevCCr5re0mafjXWYwggJlcsCKv5pbNLeIx3HGlis2vgqj1O8UFtFG8xjbVd3lzhcjcABU8s1tdpII+MbXaOSIa3hHaQRwWsk5PM1U3jPTWg7mtCXNaFua0Nc1oi5rRNzWibmtFXNaLuatJImOzL1tkO0A9Hae3hubi20W9u3y0LNGOP1t0jptUYpbm+U+AUYSuwO3OsxAxRkRI5TE8bIeMEoONTVG9q0VfR8Xq4RkTWk1vFwxqKWGaAqJYZQA66wyNxIIPDzZRub/AGNQvIE3KPCHmrRV16BWh7mtC3VaCuq0BdH1a+Dt3/pr4NXX+n96+C91/p/evgndn1P3r4PT2sLeFK2MLwaNe6ylpnVMY1eYfHIqPUJiTmdXOFWL3JOi05ilBj5VtvPIqLiJXad1QkEo6wtjd20CFXR0t5MOo6pRQahlmD6Ii5qRNKSTIajMQfTwkjh+yR9chKIzHGdXJxljsWryKdJrWKUlHDfLRjUerB3STSN2nxghTFHrtjLb2GKkMhSJFLnexAxmtDT3UZ5xkTGAeraRWgLpfRVrJFiylGG5IBq2RuvZVkE8xankX8xq6m9ai7edjVkhP3iat418w+Z8jvjlzKijrNWUt03X4C/6qmhtEPRgk1py6brVXwKklk85q3FWwFGRD2GtOXUfUC+yruK5TqYEGtHSwdbjnj/TUyOOQo8GPuUo4bAToJJTbyiRVUCQlgHB27Cas2uuLj1XKOqHP5yKSOGVr6G7t7fOURoesjperH4tDb3KzuXkVy7R+CFCE1HKJ7qaUuqzuoCHmqCEbB5tQZ+JfGEmYsp2ahRGq2BivLeJlUFVHHI+30iohMs0Sxzw6wViY/BZCah4hII3WGHWDNrSb2bGzgH1DQFAUBQFAUBQFAUMZBGRScbEScOe39DTZB4dEvdRMu0rJGuCeghyNlW4ntvjlzLcWMUgUKk21EUkqCqVawwSxaaF9awB+Y6KigJla0bJDqXERlhMyBp4geeiMjbK0elpb3KWvFIrKdqBw2ccLYUUOLgTZn/btNLsUYFAUBQFDk+T3hwaQij+MiIMjwGTHFDAwQ61fo1uQnGokOqXKnO8scA1fRwubUQFXhMmwMWz4S1dI8lsJvAi1AxkAHWcYqY/9+4wZx/hrJnmjzFiauNYrYJaldTGSja2vVwsL290k6sya4JQEYIytX8MiR3Ec2qkBTOpk4OXapdR7aUuDjOsrKVZam11vZ7iQnVxqiepeMaONVL4xrFRjOKGefQr/Izcm6Udg5x9ArRk8/UfA71WkNuPL53dNaYjj7ArV8IJvymvhDd+vXwgn/Ma00jjqYNUcE69QGD/AHNaHni6ypDd2rjDdTgp3qII5Pkd8cpC9xMdWKMdJqUyyHaIPqJUaoo6AMUwVQMkk4Aq6idupWBokJrKuQM7WOKO2ixMbapJGBns5CBlO8GpTazjaVGxD5xScVdwbHXh8WPufPeIfmkDKwwQaOvA2/8AY0fOOkH5g+YdJNZS3U7P2FIFVRgAfNeT3h874/B/kZuF+cdiINrMakNlaHcq/wCIRVuJZfHl5zUoA7PmBVogfxwACKvDPEN8MpyfwJpWhuU8KJuR5HfHK8BLYGH72twqGUjaCMg1bRmWOddTYB0CjGUEsJBV9Y62uKWNflSgBfBKZ34q4ZYpLqbXkJ8HDmpiIzuYfWFT8XEkhUyZxuFDcxAbrHDAj3TKQ6E6gK1oRT9yQmtBXA8yE1C8WVTmOMEYXgVh+NK/rUr+tSv61K/rUr+tSv61K/rUr+tSv61K/rUr+tSkEjG05+bUMCMEGiTD0jq7D2VsYeEvSOUdv1V6TRKwDcOvsFKFVRgAfNqCOojNW8XqCreL1BVvF6gq3i9QVbxeoKt4vUFW8XqCreL1BVvF6gq3i9QVbxeoKt4vUFIFGdwGOBwo+IzVOlTpzVJ9Fc8OSLdDtVU4RjXBOOrBxT7E30/g03NkukjfzGpANcE5XaDtxUm1qca+KdMmQjYeo4qXDFc0cg8GI7qDnoV2a2Og1tLhgR2oxU8Pkd8cpuLu4DrIR+hqP4vdjerbjRB4FHO37N9RrgnJ2Ui568VGurndjZSAY3bKjUjp2UMCjQNxdHwYko5uphsXojXgFDHNj7n0oVkIDkoOj9xXNkHhL/uORtc+CtZ4v6q+N+woAADAA+loeMUYBBIODXG+u1CTXKNjntRCz2hKEHg6qgQRqCNcE52kmlVBEhUFfreeo0VxqgdoFEavxuGUDqCKQat45EQMXzneWJoKBrKQeoA0iur5JY7wTUaSNryZB3Yds1hhxLLt6yc0cuikE/jwHnspVF62NeGDK/8AUkZ+HyO+OXACOutJsVG6KXataHaQDe8XvGoJoD1MpNXYHaQavEq8SrxcdQBpZZW6lQ1oSQdTSEVpLikO+OD3qhGt0ud55Hix9z6ZzWByYx+q1hZh0dfBzpD4K/7mskHaqHp/gEhgu03Ebn7DVu0Evj70apkYHqPzTqo7Tika6uDuRKfMi7Y4B4CcjyO+PmXUec1cQH84NQ27flzVkn4QmrOP8YjUNup+7iri3AG4a4pgeV4sfc+m7JhtZV+sesVH8uNnZ5zWWdjlUP6t/AoVdTvDVeTWr9AVsJRt7pPu6jekmtCTDtQ636CoLpD2wvUrDzqRV0KnJ8ymkuX+7C9aHuX7TzP1FW8FsnW+H7prSU03kK2qlW6RjsHJ8jvjl61xP4kQ16SGziPXh2rSdzIepJCgq21+1zrVo+D1BVjCB9wVYwH8gqwh/BFqJ4+2NtStLTL1CRjIKtUuYhveLwvQKkKSjfG41W5Hix9z6cgXjblFft211fwaFD5xVhAfyCtG2xP3BWj4B+QVbovmFD5jyO+OVIYraE4uJv8AYVEM9LttY/ieC6SIsMqGOM02trnYRyBjUO3NbuH5Gferx801tmUZifodeHxY+59G3CrxMirxKvEq8SrxKvEq8SrkMYruJm+6DV6u6rxKvEq8SrxKvEq8Sp1coMtj+GeR3xyd+qcUcTrMeM4cBDaSAZGdutWsInnOMdWpTZlkQcaZM7B+FSoYdc5MetsH41IRalGy3ldFMeI+MIGPUmpUjfF2uXVSOlNSs4jmdUz1cLql2HJz1Lg1pKD+9aSg/vVzHJJMB4PYMfRvFqFCddskiraP1RVtH6oq2j9UVbR+qKto/VFW0fqirWM/lFW0fqiraP1RVtH6oq2j9UVbR+qKto/VFW0fqikCjiY/4Z5HfHK8Jts0PjiswTDwo5NhogigKHAKFCgOBgo7Tiojc3B2AJuHnNSCS8l9CDqH0l1yU66dfCaj846jzmp4x+YVMmOJj+tU8frCmB/H+FeR3xy4PlBucbGFaTDoPqTc+tD8Z1tGwNWV3Ee2B6nZewrirxPSKvUPmIqZ2PkoTWjbuVv/ACXArRqQDxpXBrSbOOmOHmCoFTrIH0VwoHSTgVr3DdUKmTu1oni16GlYCtI28K9Sx5PerTs35SRWlro/9Q1pO5QdQkNacuB+cmtLxOOp481YxzgdMbhatZ7VukvG2PWqdH+6wPIYKBvJNa9zJ1QqZO7WjkgU7jKwrTKoOqJNWtKXb+aUiprtm7ZqWcP9+p7xT2TVpi6QjrkJrSsUqjokStFGRR9aI5/sKlML+JKNQ+hqOR/BvI74+ajVvOM1Zw+otWMXqLVjF6i1Zwj8i0gA7Bj6OpluZNkcS7yauWROi3iJX0kVbIuOnAzyDkcmFHHUwBq4e2lH1c5Q/lqIQ3H1W+q/AcsdiIN7GpWgtztS3jJU/mIq3RO3AzyHDFTqnHQeVbgN4681h+Ip2u7Ab1O10FOGRh/BfI74/gvQCa5ziVoowfqhOGadYxbq5EaK20t05p49ZQNYSZDbeoCo0MYxrE79tRoYZbqWMMSdbWLmnhBk1lQAkvkDNXzyNIqkoVUAZNNFvAYEnXyaUcYX1QvUDw7JYBxqN2pzq8JowDW2K1iJRT18MEsytFKSkZIq2m5igkD9K+TCDnBumn+SF9qlfvYFaxiMoi5u4EnFRTGcSYWTJ1AK2iHmhF3moZNYAFS1Elu3gAIIr/BU66jxf4L5HfH8GU/ELps6w3RuacMp3EcG2QxCP8Ac1IY+vAHOqRl61G5sUTiKczL941M54tyyLgYXIxV1NLCvgRvjApymPCUAYNMdbVwR0cBwK58khAmcbkSt0aBfQKjLlQVmjG9kqYdqneOBAZIwQrdIDb6iDFemogWXcaiUh5A79WsKtlL6wYnygcg0gUsctUQAc7R11CAH8IUuqg3Dg+UnOxIl3k1/4m6bXbsH8F8jvj+DRh0YYIPTV3iHebd9q1o6eE9LAF1Pq1dp90kKadW8xzySBV3Ev5xVvNcv5CkCpviVsd8anLkecVEFz4TdLHhnNpcNvZNzfeFWJnQf8WH9qkaE9UgKd6riI/nB5JAq6iX84rjJ36o1LVALGI/XfnNRM92d8z7T/BvI74/hCBh1GrQI3jJhTWl7uL87GvhSV+/ba/6vXwpQ4/8Awvfr4UR/+i9+vhWCOy01f/crT13J5soO9UTTHrlOvUKIOpQBy7SJ+0qKlmhPkORXwhuk+9lx3q+FfptPfr4Wp/6H36+FRPmtdX/3K07dv5iVHeoSTv5ba1W0afdUD+EeR3x/NHkd8cNh7X3asPa+7Vh7X3asPa+7Vh7X3asPa+7Vh7X3asPa+7Vh7X3asPa+7Vh7X3asPa+7Vh7X3asPa+7Vh7X3asPa+7Vh7X3asPa+7Vh7X3asPa+7Vh7X3asPa+7Vh7X3asPa+7Vh7X3asPa+7Vh7X3asPa+7Vh7X3asPa+7Vh7X3asPa+7Vh7X3asPa+7Vh7X3asPa+7Vh7X3asPa+7Vh7X3asPa+7Vh7X3asPa+7Vh7X3asPa+7Vh7X3asPa+7Vh7X3asPa+7Vh7X3asPa+7Vh7X3asPa+7Vh7X3asPa+7Vh7X3asPa+7Vh7X3asPa+7Vh7X3asPa+7Vh7X3asPa+7Vh7X3asPa+7Vh7X3asPa+7Vh7X3asPa+7Vh7X3asPa+7Vh7X3asPa+7Vh7X3asPa+7Vh7X3asPa+7Vh7X3asPa+7Vh7X3asPa+7Vh7X3asPa+7Vh7X3asPa+7Vh7X3asPa+7Vh7X3asPa+7Vh7X3asPa+7Vh7X3asPa+7Vh7X3asPa+7Vh7X3asPa+7Vh7X3asPa+7Vh7X3asPa+7Vh7X3atNQPjna+dxB6v5q//EAD8RAAECAwIICwcDBQEBAAAAAAECAwAEERShEjEzQ1JjcoEFFiAhMEFQUVSRkhATFSJAU9EyNbIGIzRhcXOC/9oACAECAQE/AHnvdYPy1rFs1d8WzV3xbNXfFs1d8WzV3xbNXfFs1d8WzV3xbNXfFs1d8WzV3xbNXfFs1d8WzV3xbNXfFs1d8WzV3xbNXfFs1d8WzV3xbNXfFs1d8WzV3xbNXfFs1d8WzV3xbNXfFs1d8WzV3xbNXfFs1d8WzV3xbNXfFs1d8WzV3xbNXfFs1d8WzV3xbNXfFs1d8WzV3xbNXfFs1d8WzV3xbNXfFs1d8WzV3xbNXfFs1d8WzV3w057xJNKc9InM3v7TlMmdqJzN7+05TJnaicze/tOUyZ2onM3v+pUhaaYSSK/VSmTO1E5m9/1AAZAKudfUO6EvGpC/mSccON4NCDVJxH6mUyZ2onM3v6KeeWxKPOI/UlNRHx3hDSR6Y+O8IaSPTHx3hDSR6Y+O8IaSPTHx3hDSR6Y+O8IaSPTEq4p2WYcV+pTaVH/pHJAJNBHMwO9z+MEkkk+xtwoqCKpOMQtsAYaDVJu5XC3Cb8k40ltKCFJJOEDHGGd+2z5H8xxhnfts+R/McYZ37bPkfzHGGd+2z5H8xxhnfts+R/McH8MzU1ONMrQ2EqrWgNeYV6SUyZ2onM3v6LhT9vmdj2M+5s60KUMNdSMXNg84/wCVgrQh1xSVpAXMpUmhH6Oete7HHvEqW2StJRhH3oJFSK382KJlbamUBJBIDX8Orfj9kj/hSn/ij+PJNGEinOsjH3clDikHmxdYh5CU4KhzBXUcY5P9R5eX2D7G2AbKr3ZKS2rCNOaoKoUwyFpOBQBKsadWSKaUFlGGjBaCkqUMM9ySAa/6BxwaVNMUcC/ucv8A/f8AE9JKZM7UTmb39Fwg2tySfQhJKinmEfC+EPDLj4Xwh4ZcfC+EPDLj4Xwh4ZcfC+EPDLj4Xwh4ZcSiVIlJZKhRSWkAjuIHJQ4KYC+dN4hxsoPeDiPICQ0ApYqrqTClFRJJqeTw/LvuvMFtlawEGuCkmLDO+Ee9BiwzvhHvQYsM74R70GLDO+Ee9BiwzvhHvQY4JlZpvhBhS5dxKRhVJQQP0npJTJnaicze/wCnbcoMFQqgw43g0INUnEfYAGRU86+od0Ekkkmp+olMmdqJzN7/AKhtzAqCKpOMRhNN86DVRxV6oJJNT9TKZM7UTmb39pymTO1E5m9/acpkztROZvf2G23h1JNEjGY98kHBCP7fdDjdBhJNUHr6aUyZ2onM3v7CbbqMJRogQ45hUAFEjEPY24UHvBxiFtimGjnTeOllMmdqJzN7+wW200w1miRfDjhWe4DEOQhakGohaEqSVoxdY7uklMmdqJzN7+wUOADAWKpN0ONlFDWqTiPIbbK69SRjMLcBGAjmSL+klMmdqJzN7+wm3MGqSKpOMQ43g0Uk1ScR9jbeFUk0SMZhxzColIokYh0spkztROZvf2G24UHvBxiPdNn58P5L/wDkOOFdABRIxDppTJnaicze/tOUyZ2onM3v7TlMmdqJzN7/AKgAkgAQtlSBXmPfTq+qlMmdqJzN7/p0pKiABUwSGQQk1X1nuhDikGo3jvhbYUMNvF1ju+plMmdqJzN7+jts74p71mLbO+Ke9Zi2zvinvWYts74p71mLbO+Ke9Zi2zvinvWY4FccdkUqWtSlYaucmp5KEKWqgEKUlsFKDU9avahakKqDCkJcBU2OfrTyuH3HEzjYStQHuRiP+zGHNAJOE5Q4uc88Yc1QHCdocRqYDkyqlFuH/hMe+fGcX5mAuZJIC3KjHzmOA3XFT6QpaiMBWM9JKZM7UTmb39IVtpceUAhQcewkDCA+WivLHH9oLaV7xKggqKiSK84rvhKpYYFFirSVpOIVqg4j188LWyW0lKkYZCsEkjHRGO+HyCW8RVgfOR1mscA/t6dtXJWcBpIR+k41clBUFApxxMYNUnEunzAcn+ov81v/AMR/Ix71n38q5hoogNE/qr8gFRAfbSWVhSapaIxKrXBO6DMSwQpCScEBeCMROFQwp1p4srcWkUUorRQ9ZrQQJtgqLhrVWBhCprVJx1FI4E/csdflX0kpkztROZvf0fF6d+4z5n8RxenfuM+Z/EcXp37jPmfxHF6d+4z5n8RxenfuM+Z/EcXp37jPmfxHBkq5KSoacKSrCJ5uS24UVGNJxiFtgDDQapN3tAJIAFTBIZFBzr6z3crhPglydfS4l1KQEBNCI4uP+IR5GOLj/iEeRji4/wCIR5GOLj/iEeRji4/4hHkY4O4Hck5kOqdSoYJFAOklMmdqJzN7/p0OFB5sXWIW2CMNGLrHdCUlRAAqYKktApQaq61fUymTO1E5m9/1CFqQaiFOpAIbTg1x/VSmTO1E5m9/acpkztROZvf2nKZM7UTmb39pymTO1E5m9/acpkztROZvf2nKZM7ULbQumEK0izs6F5izs6F5izs6F5izs6F5izs6F5izs6F5izs6F5izs6F5izs6F5izs6F5izs6F5izs6F5izs6F5izs6F5izs6F5izs6F5izs6F5izs6F5izs6F5izs6F5izs6F5izs6F5izs6F5izs6F5izs6F5izs6F5izs6F5izs6F5izs6F5izs6F5izs6F5izs6F5izs6F5izs6F5izs6F5izs6F5izs6F5izs6F5izs6F5izs6F5izs6F5izs6F5izs6F5izs6F5izs6F5izs6F5izs6F5izs6F5izs6F5izs6F5hCEoFEigj//EAD8RAAEBAwUMCQMEAgMBAAAAAAECAAMEBREVU6ISITEyNENjc4KxweETFCAwQVBRYZEQQFIiM3GBI0JictGh/9oACAEDAQE/AIOD610n+S5uZvCfC1EaezzaiNPZ5tRGns82ojT2ebURp7PNqI09nm1EaezzaiNPZ5tRGns82ojT2ebURp7PNqI09nm1EaezzaiNPZ5tRGns82ojT2ebURp7PNqI09nm1EaezzaiNPZ5tRGns82ojT2ebURp7PNqI09nm1EaezzaiNPZ5tRGns82ojT2ebURp7PNqI09nm1EaezzaiNPZ5tRGns82ojT2ebURp7PNqI09nm1EaezzaiNPZ5tRGns82ojT2ebURp7PNqI09nm1EaezzaiNPZ5tRGns82ojT2ebURp7PNqI09nm1EaezzaiNPZ5tFw3VngRd3U6Z8EzSRn9nj5nK2UI1Y3lpIz+zx8zlbKEasby0kZ/Z4+ZytlCNWN5aSM/s8fuXb909KghYJTh+6lbKEasby0kZ/Z4/cKWuLUUOyUuRjL/L2DPIRMyS5mQtA/SeBZxEdIShYuXqcZPEfcytlCNWN5aSM/s8e6cISt6hJwEt1KH/E/LdSh/wAT8t1KH/E/LdSh/wAT8t1KH/E/LdSh/wAT8s8SEvFpGAKI7JIAJJmAadcYZhOlwPlfJkpSlISkAAYB9H8OHoBBuXicVQZxEEqLp6Ll6PhXuO1CwyHyVFRN4+DdQc/ktuoOfyW3UHP5LbqDn8lt1Bz+S2fwjp26UsFU47yVsoRqxvLSRn9nj3ULlDv+foq76QEC8OLAEpSCDedkH+WuSARMZ5hcs7Cgoz+JVv8Ao+/ee/8Ac9lJMatU5mcoOL4qPuwAAAAmA7D9wh8kA3iL6VDCC0I/W8u0LvlBmuxgPZk/Eefz9FL/AHRdXwoTfAYLUQb/AIjx/wCUzXZmM6iCBe/n6RmTvP6395K2UI1Y3lpIz+zx7qHUEvkEmYAt1hxWJbrDisS3WHFYlusOKxLdYcViW6w4rEs9IL14RgKj2X0Oq76ZyZnniPBXsWcRCXwPgoYyThHYW8XFKLt0ZnYx1+vsGdu0O0BCBMB2YFaEoXdLAv8AiW6ZzWo+Q3TOa1HyG6ZzWo+Q3TOa1HyG6ZzWo+Q0U8dqcLAWkm9gPv3krZQjVjeWkjP7PH7d/DlZDx2bl6MB9fYs4iA9nSoXLxOMliQASWKlxhKUEpcDCrxX7BkIShISkAAYB9xK2UI1Y3lpIz+zx+4fw4ezKSbl4nFUGCImJIS+FwhOMAcc/wDjABIAAmA+5lbKEasby0kZ/Z4+ZytlCNWN5aSM/s8fJJxPNPf7+VsoRqxvLSRn9nj5G/iA6mSkXTxWKlupLI6RT09PhCvAe38M4iCsl28Fy9GEevuO+lbKEasby0kZ/Z4+RP4i4IduxdPVYB6e5ZxDh1OtRunisZXAfR/DpfAX5ljFUMIZzEKu+hfCZ4MB8Fe472VsoRqxvLSRn9nj5C/iFBXRORdPT8J9yziHS5BM90tWMo4T2HzhD5Fyr+iMILOn63aw5f4xxF+CufeStlCNWN5aSM/s8fIX8OSrpXRuXo+FexZxEB6CCLlacZJwjsP4hLkAAXS1YqRhLOIdQV0r03T0/CfYd5K2UI1Y3lpIz+zx8ifw/SELQbl6nArgWcRF2S7WLl6nCniPo/iOjmQgXTxWKniWcQ9wS8eG6eqwq4DvZWyhGrG8tJGf2ePkb+HS+AM9ytOKoYQ3Wn4/wl1O/skfkziHDqdSjdPFYyu+lbKEasby0kZ/Z4+ZytlCNWN5aSM/s8fM5WyhGrG8tJGf2eP3ClJSkqUQAMJZzGO3q7mYpOFM966Ht91K2UI1Y3lpIz+zx+3WtDtJUozAMlC4tQW8BDkYqPy9yz5wh8gJN4jFIwhnT9aFhy/x/wDVXgr7mVsoRqxvLSRn9nj3fROqtPw3ROqtPw3ROqtPw3ROqtPw3ROqtPw3ROqtPw0YkJfEAAXh2Xr1DpBWszAMh0uJUHr4TIGI74n6vXKHyClYnG5nb5bhYdPzODiPPX2PagAC5VOBjtM7v3ktM79EsQgYQlrlHoGmd+iWjUpDgzAYR3krZQjVjeWkjP7PHvAFFKAZxcomN44bzfqmULkieaZiHhnvYxB/+sAsKM4M16f5LIn/AFek95o79/ZHZc/54hZf3loP6XfgPf37L1DtbtQeAXM1+doFTwhYvqdAzIUcJ7MB+yr/ALlrldw8TMb916eJYoUbsEG+r2wTt0bwkE4SRP8A0wSpF2Eg4AAW6Jc1yMAnm/tozJ/7HeStlCNWN5aSM/s8e76+59FN19z6Kbr7n0U3X3PopuvufRTdfc+imiXqXr26TPNN2X8OHoBBuVpxVBnEQSronouXo+Fe4+qlpQkqUQAMJYJXGEKUClwMCfFfuWAAAAHZhopLlBSUk352pBFWWpBFWWpBFWWpBFWWpBFWWfxaXrspCCO8lbKEasby0kZ/Z4/bv3CHyQDeIvpUMILOX60rDl/eX/qrwUzx4h2gqWZgGQhcUoPHoIdDER6+5+5lbKEasby0kZ/Z4/cPnKHyClY/9DO4V4pYL95dhGIOJ+6lbKEasby0kZ/Z4+ZytlCNWN5aSM/s8fM5WyhGrG8tJGf2ePmcrZQjVjeWkjP7PHzOVsoRqxvLSRn9nj5nK2UI1Y3lnMQ+cXXRrmnw3gWpGMrbIakYytshqRjK2yGpGMrbIakYytshqRjK2yGpGMrbIakYytshqRjK2yGpGMrbIakYytshqRjK2yGpGMrbIakYytshqRjK2yGpGMrbIakYytshqRjK2yGpGMrbIakYytshqRjK2yGpGMrbIakYytshqRjK2yGpGMrbIakYytshqRjK2yGpGMrbIakYytshqRjK2yGpGMrbIakYytshqRjK2yGpGMrbIakYytshqRjK2yGpGMrbIakYytshqRjK2yGpGMrbIakYytshqRjK2yGpGMrbIakYytshqRjK2yGpGMrbIakYytshqRjK2yGpGMrbIakYytshnr54+UFPFTkCZv/Z;" vertex="1" parent="1">
                    <mxGeometry x="-578.66" y="-1765.04" width="457.33" height="297.54" as="geometry"/>
                </mxCell>
                <mxCell id="76" value="" style="shape=image;verticalLabelPosition=bottom;labelBackgroundColor=default;verticalAlign=top;aspect=fixed;imageAspect=0;image=data:image/jpeg,/9j/4AAQSkZJRgABAQAAAQABAAD//gAfQ29tcHJlc3NlZCBieSBqcGVnLXJlY29tcHJlc3P//gA7Q1JFQVRPUjogZ2QtanBlZyB2MS4wICh1c2luZyBJSkcgSlBFRyB2ODApLCBxdWFsaXR5ID0gODIK/9sAhAAODg4ODw4QEhIQFxgWGBchHxwcHyEyJCckJyQyTTA4MDA4ME1EUkM+Q1JEel9VVV96jHZwdoyqmJiq1svW////AQ4ODg4PDhASEhAXGBYYFyEfHBwfITIkJyQnJDJNMDgwMDgwTURSQz5DUkR6X1VVX3qMdnB2jKqYmKrWy9b/////wgARCAKABAADASIAAhEBAxEB/8QAMAABAQADAQEBAAAAAAAAAAAAAAUBAwQCBgcBAQEBAQAAAAAAAAAAAAAAAAABAgP/2gAMAwEAAhADEAAAAP0kAAAAAAAAAAAAAAAAAAAAAAAAAAAAAAAAAAAAAAAAAAAAAAAAAAAAAAAAAAAAAAAAAAAAAAAAAAAAAAAAAAAAAAAAAAAAAAAAAAAAAAAAAAAAAAAAAAAAAAAAAAAAAAAAAAAAAAAAAAAAAAAAAAAAAAAAAAAAAAAAAAAAAAAAAAAAAAAAAAAAAAAAAAAAAAAAAAAAAAAAAAAAAAAAAAAAAAAAAAAAAAAAAAAAAAAAAAAAAAAAAAAAAAAAAAAAAAAAAAAAAAAAAAAAAAAAAAAAAAAAAAAAAAAAAAAAAAAAAAAAAAAAAAAAAAAAAAAAAAAAAAAAAAAAAAAAAAAAAAAAAAAAAAAAAAAAAAAAAAAAAAAAAAAAAAAAAAAAAAAAAAAAAAAAAAAAAAAAAAAAAAAAAAAAAAAAAAAAAAAAAAAAAAAAAAAAAAAAAAAAAAAAAAAAAAAAAAAAAAAAAAAAAAAAAAAAAAAAGHPzWUU4lFOFFOFFOFFOFFOFFOFHM3ul2MZUAAAAAAAAAAAAaTanLminCinCinCinCinCinCinCinCinCk8+poAAAAAAAAAAAAAAAAAAAAAAAAAAAAAYIVWfW1z0tyXTr6oR3ePkeivq9PylA+i1fHbT7bPnojS3Dn4K8irOTOwAAAAAAAAAAAMQ7kbWKLcjS3DjQ+c+h8QOOvrUDhPrnzso+39/DdR9bt+UsxVbhp89Ak2Y9hQmgAAAAAAAAAAAAAAAAAAAAAAAAAAMMfHH2T46+aK3zvXvlYR0tjxKFPxPFNMFTxOFfMcWEcV5PnFlzJjqAAAAAAAAAAAMCNY+f1i9mOSwjip5mipiYKKcKWZgpepYo7JQsI4sYkD1ZiWpcibAAAAAAAAAAAAAAAAAAAAAAAAAAwSUqzdSt3dLJitD79Z7nz9zOtiZwn0KF0lRC7zuAAxkYlVpOpZQ9ON/RJ9AAAAAAAAAAAcPdynnh7eLWK2SaBAAAAAAAGM4JVmPYAmgAAAAAAAAAAAAAAAAAAAAAAAAAMSqsqyqIBY3TzdO8Te3huZszLBu8Y0menzzlvMb2VgAJFf5rWezVvp46ctEAAAAAAAAAAE2lHTxzfRR946+Lt4877ebPhPWjPo5tu4Z0snP72jNmDbPYABgl2I1kCaAAAAAAAAAAAAAAAAAAAAAAAAAASasqyqIywWN083TvEyhwW82Zo2YPWzSOrh2dRo0bxYzF3lMCTWk2V5NeRNWBKAAAAAAAAABiRYj2Vo9iPc9XN08k1qefSdGrPo0+fe88s+DxnxvOvs4e4AAYyJNmPYAmgAAAAAAAAAAAAAAAAAAAAAAAAAMSqsqyqIBY2/R07xNo55c3Lxk1Z99ByY6eY276GSX6pgBJrSbLEivImrAlAAAAAAAAAAR7EeytHsR7muJpjIAAAAAAAGEl2I9gCaAGA0k3NI3NI3NI3NI3NI3NI3NI3NI3NI3vPpQAAAAAAAAAAAAMSqsqyqIBY2/RX1iHr+gS/NVu8fPer4+f1/SDz6AABJrSbLEivImrAlAAAAAAAAAAR7EeytEueUnOtZyOscjrHI6xyOscjrHI6xyOscjrHJ57cpwV8M7yFAxJrx7n16oZsnKInKPg4Hz1AovlO4uvjKxdfMbz6F67ycoicoiLcjWQyzvDOs1a5lDWPbwNjXrN7Vg3NI3NI3NWDc8D28Dd0wbMbhN4lVZVlURkLAo7tOsAAAAAAAeeXs6z1IryJquxHLKOSwjiwjiwjiwjiwjiwjiwjiwjiwj+yrIrSSuZmsMjDIwyMMjDIwyMMjDIwyMMjGQAAxIsRLmvmM1myjCziONzSN/jWOvdOGz1pFXZGFlGFlGHqz8/fl9DO8ePfhJlSXU1kJXwv3Wk+F7/qfB8p2/RYPz+l9Zk+L8fdaK6dhAE7s4+yzoGdpNWVZVEZCsZBgZYGWBnAAZYGWBkGJFeRZ38vVy3Peylwzgg7JaqqP5LnuVxF/Xx7jpc/EWqfy31RhlGJFiRc2JNaTNV84zNAAAAAAAAAAAAAYkWI9zUz5iVdcHdLlH6TvR/ZVSfBZR6x6CAAAsizF23NUZ217PCfNduyrvnGWSxlkRlkRlkRlkRlkRlkRlkfN3+PsOgY6YlZxZVEZCgAAAAAAAAYkV49lDl6YesfRI4sI4sI4sI4sI4sI4sI4sI4sI4sSMcdn00mtJxuvnGZoAAAAAAAAAAAABHsR7mn899FGrZQm+Ix66NBz+/e05+/q2nzn0WQAAABHc/TrFf1GZ3Z1yvBuz55rOuhGoy83rhwdWefrN3D64irmX1lkAAE7s4+yzoYZ3N8VZVlUS5AAAAAAAAAB5jWI546+nm1jvfNdMt1o+YPrXxFgvvl8H1KXxH0L5/J9Ak1gABIryLmxJqypqvnGZoAAAAAAAAAAAABHryLmn8v8AURqxq7MRx6K3gn7e4dfRH3lFz9AAAABIsR7NmObq+ezqv4+Tpnf786dZ3auf3L0dc3wUO/5z6MMjDIAAAnaN/ZZxKiWXrsBnGZoAAAAAAAAADGPQ5uXq5dY9+OKdLf6YvKXfOv54+k9RRY8+ZB9Hoj7S5uAABIryLmxJqyZqxnGZoAAAAAAAAAAAABHsR7ml819LOqfs7eqIe/q9HNr7tBy7e/Se6OMgAAAEizGs2ZGd+fGzwkvZr5dZ66UWtLN7Zvo3p3Qd2jR2Gqt8v9QAAATuzj7LOgZ2AAAAAAAAAAAABzcvVy6xhN0y2MRes79uqYWOmXYJuaInbO0AAAItqPZ76NPBNfSZg3ZcgAAAAAAAAAAAAR7Ee5qTKY+a67WT5bqvCLxfTj5PvuhkAAAAJFmNZsyM7x49+El1ZNTWXN0l9PI9PI9PI9PI9PI9PKPTyODs4KFm8Z2AAAAAAAAAAAABzcvVy6xvRuiXb765ZvT9hT7PmOsuPndpdfIUC/mPYAAEivIud/Fe9Z3Fs5KAAAAAAAAAAAABiPY12efUxc00wU0wU0wU0wU0wU0wU0wU0wU8TRrt8/TKE0xkStdlcxlnFR1jJGWcEdZEZZwR1jJGWcEdZEmqS5EoAAAAAAAAAAAAHNy9XLrGPHH0S9Gij80WtnzVc6XD4O/1wZO9K6Sl1/L9xaAAkV5FzY9efWdgoAAAAAAAAAAAAAGMgAAAAAAAAAAAAAAAAAAAAAAMAAAAAAAAAGWMgAAHNy9XNrGvFRLwb+gS/VITvFQTlERt9IT9vWAAEivIubHrznO8hQAAAAAAAAAAAAAAAAAAAAAAAAAAAAAAAAAAAANcpS1iaqCW7eRPJlcOrmMMjDbrMPQ8veyzQqIl9u+SWxnoABph/Q+biOsqjLPMT3b7J6h0RHWRGWRGWRGWRGWRG0fQKZM7yAAAAAAAAAAAAAAAAAAAAAAAAAAAAAAAAAAAAAYI9WVV1jIlizPrcHw277MfFafux8T6+0Hx2j7gfD8f6IPkN31IZBIryLLOcZzsAAADHN08ycPzX2XSvwP3vrIAAAAAAAAAAAAAAAAAAAAAAAAAAAAAAAAAAAAAAAAAAAAxnBGyq75ylXJJVhJVhJVhJVcklVEpVzElWElWEnmvyLLOcZx1AAAAcvVzJ47OLtAUAAAAAAAAAAAAAAAAAAAAAAAAAAAAAAAAAAAAAAAAAAABjIjVZVXWIHdybpd0zt3nB76ec28XX7ObPv0Y179Jpqc/WdYAEivIss5xnOwAAAHN08yeOvk6zIUAAAAAAAAAAAAAAAAAAAAAAAAAAAAAAAAAAAAAAAAAAABjIjVZVXWIe7Tsl5e3n9nNt19B5rS6Z0AAAAASK8iyznDO8vPAUQAAObp5k19nJ1mQoAAAAAAAAAAAAAAAAAAAAAAAAAAAAAAAAAAAAAAAAAAADGcEerKq6xDz5S7POznN+fHo9cvVoPVDi6CiAAABJrQLn6FHTVSRsLXSBXSBXSBX5uHSUe3n6JQAAAAAAAAAAAAAAAAAAAAAAAAAAAAAAAAAAAAAAAAAAAABgj1JdXWI/jtly1p+3QdLzg19XPrNtmJbMgAAASK8i5sMs7wyMMjDIwyMMhkUAAAAAAAAAAAAAAAAAAA0wT6R8z9IegAAAAAAAAAAAAAAAAAAAAAAAMZwR6svt1z6Gku5pG1qG3OkbmkbmkbmkbmkbmkbpFGYlvOM56AAAAAAAAAAAAAAAAAAAAAAAAAaof0A+fv5yAAAAAAAAAAAAAAAAAAAAAAAAAeJ9IkxTWTFMTFMTFMTFMTFMTFMTFMTFMTOzeXIlAAAAAAAAAAAAAAAAAAAAAAAAAAAAAAAAAAAAAAAAAAAAAAAAAAAAAAAAAAAAAAAAAAAAAAAAAAAAAAAAAAAAAAAAAAAAAAAAAAAAAAAAAAAAAAAAAAAAAAAAAAAAAAAAAAAAAAAAAAAAAAAAAAAAAAAAAAAAAAAAAAAAAAAAAAAAAAAAAAAAAAAAAAAAAAAAAAAAAAAAAAAAAAAAAAAAAAAAAAAAAAAAAAAAAAAAAAAAAAAAAAAAAAAAAAAAAAAAAAAAAAAAAAAAAAAAAAAAAAAAAAAAAAAAAAAAAAAAAAAAAAAAAAAAAAAAAAAAAAAAAAAAAAAAAAAAAAAAAAAAAAAAAAAAAAAAAAAAAAAAAAAAAAAAAAAAAAAAAAAAAAAAAAAAAAAAAAAAAAAAAAAAAAAAAAAAAAAAAAAAAAAAAAAAAAAAAAAAAAAAAAAAAAAAAAAAAAAAAAAAAAAAAAAAAAAAAAA/8QAMhAAAQQBAwMDAwQCAgIDAAAAAwABAgQFERQVEhM0IDVAEDAzITJQYDFEIkEjoAYkRf/aAAgBAQABCAD/AN7o9uvXZnLy2PXLY9ctj1y2PXLUFy2PXLUFy2PXLUFy2PXLY9ctj1y1Bctj1y1BctQUZxnFpR+WY4gR6ictj1y1Bctj1y1Bctj1y2PXLY9ctQXLY9ctQXLY9ctQXLY9ctj1y2PXLUFy2PXLUFy1BNlaDuoyaTM7fztccD5G5Mm3AtuBbcC24FKFSM4wck8eJ5NOJ8XLV2d6LRhJ2s4p3ZmZqciSG0y40ZWFPsAW3AtuBbcClWruzs+J/wCD2hfMsQibKhHPbgW3AtuBbcCM1MEeosI1CQ64dzHMNiOx8VLV4jJjTSaI4lxsi9uJp48DsxSSoCaLkjPHyg5IzjTG8IzPKjXZnMMdUkGnDbgW3AtuBTq15RlF8M7tXJH+eo+bkPTmx9AwXY3oMXGWLz2pjfHXmZmnXs4qjMQKkM9e1rFOKyHJSu9gBsiaFeTTAGTejF/mvfMn7zD05Hstmq0rlu1SDQtQx2LhAZbVA/ZDD/4pIjQk8gWohc+PFSpSCKVGF/JvkRDNLiYtMelbKvPLMa9bP2bRQXZ46ysAaBqUnj6MP+Kx/N6stWWqo+dkPpqy1ZaspM0mdncQng0HatWbXRxjd4u/bG7u7uMbx6HkAMpNJ20WrLVlqy1ZYv8ANe+ZP3mH01ZastWU4DI2k2CJmizdEHm0n7QujoUAAg/VBgAaXU0wiI7PPtwd4u7iFJ3d2hCOvS4ASi0XhGEI6R1ZastW+mH/ABH/AJqX+FC7kDV7N5gZG9lYGLDFXC3MeAxIRuveu7fozC6MwujMLozC6MwujMLozC6MwujMLozC6MwujMLozC6MwujMLozKxHX1W+v5Lv8AS21h8rDsdGYXRmF0ZhdGYXRmF0ZhdGYXRmF0ZhdGYXRmF0ZhdGYXRmF0ZhdGYXRmF0ZhdGYTwzKwvV2DNL+Y1WuqnicbOw55WcXQtyjM8IQHBoRpedf+BosX+a98rIOZqhXFRnIlOvOU/eYfFw/4rH8zkZGmStWHwtVcJVXCVVwtVYoMQWLw43LUwEpxjC/kZVJ22ERijgRo33g1zvPkrTFgMhskcEqrrc2DGswCG/bbH7s1GwQ4X7vrxf5ryPlLUbZa9WGflZ0FTxuS3witP41yu9gPQ1Ou9UERPP3kfxHWH/FY/mbnn470OqXm5BW6znnUk0MdejXeqmu0wMwWtUWumAeJqll7kjhjVNMoyGoUJ052dWxbyr0QFq0drZLMbevGflvKziSTtFOBsEIHROpjsfCiMjN8V1etzA4RCYWbQI245aDWL9idaoU0GsZEp7LBp2d0CJEe1Yla2tadm3XqmIdrd8lSc4Su5AdIJyNeOIBikgTIwKNjDs5G00zA5Q53rdqGTO421JkZxvxE3qdYf8Vj+ZuefjvTS83IK3ZkAlOLQyF9607aHOJIQJFj3THsxEfITDaEJStWS2ShrWbeQBUmeULNqJqwy3cmStK1GEbtiFwFcwchKd6YZemsW4OxcYD3MpBtZVzjOEZYfGdXPcsZ9J+8jV2u9qsULbW+MtiQASDRFADzAQp2t1SULFlhtZhjIgnZYJqJJU6wYSpnKEojPStmKGViFO6BpirixQhzBrHGzgEYYvhAzCTrG0owg0vS6w/4rH8zc8/Heml5uQVytM5KcojoZGNadVo3KQIsJCx1YpTnJwsCisd6FS+EjmgapaPjygLaqnnKsUJsZYsDtOV8c9ey5qbYZhArdn04v815OsJ4PyLnuWM+k/eYK+edaoQsN3aAUULFS/YsRDN9/ZmY0Ibq0c5h1yXbkSAE7ZM3QTqnkbTNbIzXLNgsoVp3zhnWidrt+VbdsPJ63mFKlYewF5v68P8AisfzNzz8d6aXm5BW7Uq5KsWHk77gnaccoEHGcSXb3ctdpshbOWEK0coUghsOeRs13LCzDIXIRAWyG7MlU5k1+0eUB1j28kKpMye7eiwISr2rO529n64v815OsJ4PyLnuWM+k/eYK/XJZqFEONW6cwyWalO/WiGCt0r1hiBltb1UpJ1eOmUoCWWxhIAcEAYsMSWJmLWuhsENVlQsFnWmdqWSiDaNxbPuIvj65q1Zhl9TrD/isfzNzz8d6aPnZBXK0zlpyiOlkY1J1GjbpAiwULH1ylsGKXGBNanMsMfYCGs8DU7Vt5kM1O6aFYBnp3hwsVwtUsVTdytMNo1GwIlioZ3pmEAFglprJ/ri/zXvphPB+Rc9yxn0n7zD66LT4DrD/AIrH8zc8/Heml5uQVu3t+1GATWXnKJ62SY8TyQssxKTHU7t+FqAGJkyRYjQFdm9hq56mQ3BiwUMrY28bRYO0otJtPVi/zXvphPB+Rc9yxn0n7yP4uH/FY/mbnn4700fNyCvVzFcBgGhlLISxd8YUBByAfFncFXtTBOV8B2PRt/8AmlAtbI2JOeUcWStOpMA6mRlSalIcWjCMW9WL/Ne+mE8H5Fz3LGfS5Nq2QDYnytFcrRXK0VytFcrRXK0VytFcrRXK0VytFcrRXK0VytFcrRXK0VytFcrRXK0VytFSytFou6xEJxrzlL1OnOBbgC3AFuALcAW4AtwBbgC3AFuALcAW4AtwBbgC3AFuALcAW4AtwBbgCaUZNq3zLnn4700fNyHwcX+a8nWE8H5Fz3LGJlKMZM7Ptay2tZbWstrWW1rLa1ltay2tZbWstrWW1rLa1ltay2tZbWstrWW1rLa1ltayauBn1ZvXl5TYI4RjiaLMzPxNBcTQXE0FxNBcVQXF0FxdBcXj1xePXF49cXj1xdBcZj1xVBcTQXE0FxNBcTQXFUFSjt7568PSS1XE+k+QpLkKS5CkuQprf01yFJchSXIU1yFJchSXIUlyFJchSXIUlyFJchTXIUlC3WJLph6Lnn470iMOrkLcTb+mt/TW/prf01v6a39Nb+mt/TW/prf01v6a39Nb+mt/TW/pqWQpszusTrLclTrCeD9Nfia/S57ljE3xm9eX/bVTf4b0z10d2pAqW6JrdzHTblMkyzE57jMaRrdqnamonOGrTqFnjqfOQAq1fvWr+t2rKVs5FjTDPRrEH6Re8m9M3doSdY2oA4O8XjqS46kuOpLjqS2mN10WxodXSpU8fF2aT08dH/LUse/+Hp45tdY0sfLXpajQd3ZtnjWl0Px1JcdSXHUlx1JZGnXDVmYQJPIUJP8AW55+O9Ja4Tfk46iuOorjqK46iuOorjqK46iuOorjqK46iuOorjqK46iuOorjqKbH0lGLRZmZYTwVJ2ZtX5SZJP2N/bW/uLf3Fv7i39xb+4t/cW/uLf3Fv7i39xb+4t/cW/uLf3Fv7i39xb+4t/cQclqaAjK57ljE3zcv+2qm/wAeomHxxTueZsNjbBZFK+Jx8oki8MLjBu7wnjqZIgjN6wXOx0TCYss5kmbD407xcgxwFCMIekXvBk3oJ+OSw/gj9D/4dYYDOJiuG47XYZJxBo2bmV5HKVKEsZWMGYq1HM0Yxvf+WV6cKDNXytqc8aeYbwLJDjAB7NlxO0hwk31y3t51W/AL0XPPx3x3WE8FWn0rmWLZthXWjLRloydmUs/Wi53eWaD3pjHzVNwgLDm6sRWZzDmK8ywFPlq2we6xcuCBZCGTOV4AidpZgUGG0mzVRhWJzq5KFgzCfRloy0ZaMsp+j03Zlc9yxib5uZeTCrvHdZVbvKrd5ZbvLLd5ZbvLLd5ZbvLLd5ZbvLLd5ZbvLLd5ZbvLLd5ZbvLLd5ZbvLLd5ZbrKqjM08oZzN6CfjksP4I/TCuEY3HB6lZwMBzUKZ5NIs6wJjiOR6lezFomalUYcBsWpWNLqJKuCUIQlLHUZF7r+jLe3nVb8AvRc8/HfHdYTwVb8YyxfgV/Q6qYUh5X2szxBy3MhIYqlmu2OtjuVL1+GQsrt3Miei0+xkI46eLaMLeMvW5xyA7tvDPGV4NkN2reE9W3ZJfuTxgrcb8HF6Mr/qJlc9yxib5uX/bVTf4+IL3k3pJ+Oax88k1aDB7uZXdzK7uZXdzK7uZXdzK7uZXdzK7uZXdzK7uZXdzK7uZXdzK7uZXdzK7uYV6eTeqRjVvwC9Fzz8d8d1hPBVvxjLFu2wrrVlqy1ZastWX6L9Fqy/Rasv0X6LVl+i/RastWWrLVllf9RMrnuWMTfNy/7av0jlDGat2alvcuSEndchYL3ZVgW+8cgns5Nwva03VyECzNDJxnWAVmu35WZAULtwsp9qOuja/YH7wdFs2B36wXb6k/ZNYfwR/Cy3t51W/AL6gnZbI2Akuefjvjv/hYaTNWIN7fjGVLGCNVER+GCuGCuGCuGCuGCuGCuGCuGCuGCuGCuGCuGCuGCuGCuGCuGCuGCuGCuGCrdCFWdWUWVz3LGJvm5f8AbVTf4QKd2rs5NWaQCGsW4HAXVhhDepQKAMR3gWyGe3Qsna66jUdhHgM+OPuKxAxBNr8zqFB4EK84a9La/YH7wdWquQLcAYba/wDf0J+Oaw/gjVrIxrTPF43yRICB5P0xlJVLti0MRWr5GB7JgM2RKSEihPfOIwIIFlymMGTZWU3DEYL7TnYgShea7CUvXlvbzqt+AX1hQJC1Kyrnn45N8aTszO6iDG5ORCwsYenABJNi/ArrVat9Xdlqy1ZarVastWWq19eV/wBRMrnuWMTfNy/7aqb/AAg5gRqBbTGuSKSQwtk68GryiXIwFdhWQMrOcq7E5Y3aKdSyBpHmIApTnCLz+2UtgeTK4N3llu8st3llu8sp28t0S1w7u9ATvkaVk5Ljj6blmYGNKzWnF4xrY2dahCUY4uwCNScARyNML1h2QGKfHTYsLgLhjhHiSu9JjcfZGKzVECietegWPqy3t51W/AJa/TVW/cMcm+NLRoyd8aeE7Fxmt+MZYvwK6yU59zJRaQtnapsG07tWO7UBmmLHEBF3ek04DE925ahY0lN4V53O5Ua2Ed8kolotCtWhaqxtEtUgvbqOhVoWrNqBcWSchHhL1ZX/AFEyue5YxN83L/tqpkTGW2xwWHAdqkY/RHGmkzMUVK45AnMDH2Y7PpfElepNFqke6U0q/wCgoN9wXvBlotFZt1qkWkd7Vdg95x2q1oM5AxHgjRbpI2pVxzuFcjBacwAYOr5Fxxl3C2YjsAA4b4y3CVmWjLRaLT15b286BcudqDR3l9by8t5eQhW7FwRz/HZlb8YyxfgV0ajXO5uuFEQJOUb7wjPAggwCIYoPRrbZ6yLQrlk03ljqriGJhUKwoFiwcdWCSJIyxdSUpO8gDlIU0ahXMRyuEAgDjAfqyv8AqJlc9yxib5uX/bVX/SHmIzDA8zZIY+9o2R0lKBAXSm7btyTyZ5jnf/8ALIYWyInmCMuV/wCHeUMgGdyVVVjtYH1t9kXvJvrlQlhlAW2bFXYl3j48Bnu3bb4fwRotBz5KZZWaLNajKUglg9U4LI7d4E4TNjmrWgGqQxtutCsSLfby3t51W/AL66LRvk2/GMsX4FdSBuclbjIhTGatCcq1hqcmBO09UVmIhUWDMc4DnLsVHHaKR2uM8yWqo7RAQosGY5wrFNZ2daVzuVGtAHCwdnrViN68r/qJlbfXKY1mb5uX/ZVX/SAO/LGjoI9CxLdQbYlFZsvGiJxRBBwTv1BNWj/9qnZPNjVrdo1aRdcg9N6KlQJofpxcDQqMxvsi95N6NGRPxzWI8Eas5EVeZoyFkWcgxnd2izuuUaTdyALMDzsQjPIxiztEmQIGuQxnuweIHGHIGKeYVWyJ7MYTh68t7edVvwC+bb8YyxfgV0bHhKaZXnja7wBGEseKY+icMfXixeoWOrinCbvRryrwA8qVeTzk5BDKOUJjxteExyeWNquIcGhja0YFi5aVcpwGl68zDrhWimxbKrRBWnIkfm5f9tVO7tF3YeReZphYV+RmaUA2IG7vSPIOVydvkNSmGOd9u44oTzFQcAzct8AiEhOOSj1i7jfaF7yb0k/HJYfwRrJVbBS3JQm1m2SrBEaJBzggTvV6oq0a7nrWrvUeod2k7uF5gnAcKlgORC0a4SQvXSSx1ZwBrxJ68t7edVvwC+bb8YyxfgV1ZO/I2hyc1piVIWtxalUabGKWtUMSA6ZBkFNqpbFtqYpVplDkDVJfcyv+oshelTiGI5Z5wait1cpY3ga1xv8AHzMv+2qm/wAIAiRyN4j0xMGEGJWIWvOzCdYHZnY7oaBSW7xJR79G1YdNQOUoCFnjrpDWBOadm9AAE32he8m9JPxzWH8Ef0lFpM7PGjUjLqZvvZb286reOL5tvxjLF+BXUK8IHMZnrjlZhYU8WGUZQjCg3SSBQ42A5wlJ8WDtChGtTHXecm1ZarVO7LVa+vK/6iv0GuwHpwACtKduviZjtQs2fmZf9tVN/hvRp9NFotFp9sXvJvST9k1h5x2cIrqZdTLqZdTLqZdTLqZdTLqZdTLqZdTLqZdTLqZdTLqZZacdiZlWZ2ANn+Zb8YyxfgV1kLJ4TyEYv3qlmqytF7NY5UAFotcB1byDwv6tMBuREJu4SVm1GTzIeyYbtanMdcATyPSOGDAuGkOk4SXiBDkJPibLlGUM/Vlf9RN8/M/oKvNRJB2Z264rriuuK64rriuuK64rriuuK64rriuuK64rriuuK64rriuuK64qtJiZaxKPpLiapJvNuGAuGAuGAuFAuFAuFAuFAuFAuFAuGAuGAuFAuFAuFAuFAuFAuFAhYirCbSf5tvxjLF+BXVjHCO9h3jRYRdxKNiwR2hOOJHFojaGMqxAQUhU4DmCaehNilmMtDrJEsOKC4JDeGOi03IV8eJwVhM+NBIvXKFMIz9+Gvqyv+om+eQcCxeM+GorhaK4WiuForhaK4WiuForhaK4WiuForhaK4WiuForhaK4WiuForhaK4WiuForhqKr1g14dIv5W34xli/Arq/bsQnfjB5WatmtF7EngA0o1LtgkcfIXImeo5IQnauWbEFC3aHKPduXbGlwg2PKNe1OFIzzcbqBro8aG+wpWL5LE4vfLJq0TYuwU07Gnpyv+om/tVrxjLF+BXVnHQsPZd403GRjlc0zM45VgRr1xBjxomqbdToO5XMKOPC1YgFxsGpRqxlTNMZBkFUOPpZ4YhmGEM50H7pCBFQEKQHgCrEBTTj6cr/qJv7Fr9i34xli/Ar/Eyv8AqJv6cQkBxlKT5qp/1zVVc1VXNVVzVVc1VXNVVzVVc1VXNVVzVVc1VXNVVzVVc1VXNVVzVVc1VXNVVzNVVbgLTO4vUaHWOcVVvNSDGufmaq5mquZqrmaq5mquZqrmaq5mquZqrmaq5mquZqrmaq5mquZqrmaq5mquZqrmaqIV8iavETN/Tsz40WUBxjFmbpiumKsnBVDIpRZTHFYjxDl8YecIQNlcaAkhzhZrTN2Yky2NFr1crjnFIqjlcbKBZtXyNC1PoFPK4yBXHI+Tx9YnbJPK42AhleOTx8xTK1a9TtynEPSy6YrpZRi0Mz/x9bxXSy6WXSyuMzVTqlGLU66HZqllOA3s1WKwn6WXSy6WXSy6WXSy6WXSy6WXSy6WXSy00/p+Z8cab659pSxZmhaxtnsWrdiALUOH3QLIaNe7VsyBZxlLG23tV50w4brvWImx7dNmxE+Mvji5Y5GxjY1RWRAxJ8eUFPJQvPATtEdbGyYxa1mgWJMRZOW+aLN9X95h9y74p1IZS4dxh2c7AaoaZKU3qbRQZ2hBn/rLrM+PBN9f0WjLRloy0ZaMtGWjLRloy0ZaN9GZvQ/vMPuXfFOqLa1K60j+rLRv65mtXrQTVMgtpkFtMgtpkFtMgtpkFtMgtpkFtMgtpkFtMgtpkFtMgtpkFtMgtpkFtMgtpkFtMgtpkFXGYeVixft3P1qnVB9adb+vZnxxplq311b06t9NWWrLVvW/vMPuXPGOsf4VX+vZnxxpk164fbRFVtGlZLWPk7JK1ZpjNlLII2ovC+eFitB4WcjYA9kVXId4rNJ8lYltnRbxxADJpXLMahyRlatUyDjZezktq9xnyRiWDRhjrM7VWBZ+l/eYfcueMdY/wq39ezPjjTLjrI+w4hDlTlOxZsdGSGwY26UDUz1xyosxwnE1G8GD1w2sXEtcARWaRnJWnXLUvGGPUlW8auUUo0jnK07b0Lzh2qjjA9yy86YihDEZPS/vMPuXPGOsf4Vb+vZnx4JkLKEkO11tatnMSAC5gwoQZzZCTXq9cYMuebVXU8jYaFmbPkiyPGDAm8xxeX10+w/vMPuW/GOsf4Vb+vZnxxplYxRC02HF6l0JpErcTJ3FIlbGTD2nkPF2+yAE5YkZBHaU6lzcsdq7FiNmJ9t/eYfWT9LO6o3d2xn+xb8Y6x/hVv69mfHGmTXrzAnZVnKyHCxIbXbArIwlp3rFmAZvG3dsRIWvvbRjyABrpxyrQPubpoNehDKvK5EapWXsRM7/AGf/ANmH1m8mjJ44yFwZbXe9dvxjrHeDW/r2Z8caZNSyG3nVaziZljZhGGMgCy5a1OjYqwDB4VshWiQVfaXQHkYOztknWmaFPIhrbQcMXBtxCWMqmrV5wN9m1YjWysJy5ca5ca5ca5ca5ca5ca5ca5ca5ca5ca5caPfJaFMIK4uyEY/69mfHGv10/SNvIPdes4b92yxHhWsuYtobys3DGJ23tXpWSBFK5bmeVcJcsUYZO88iODtJpX7oYQOdvsun95gtFotFotFotFotFotFom/r2Z8caZNXm2RJYQMcYLkeQg3a9i1KLUCMaxOTYwZrRTH2p6tkhasKJ5TYpHxJXPZixK9+0GNczNo2n2n95h/KmNEASlnHOWQwHZtzztqIXtxjNpwjKP8AJZnxxplp9NPpoy0Wn3X95h/KmFAopinDAibtwPPACdnDGLNGMYt/JZln2nUoWQTgzt3xLviXfEu+Jd8S74l3xLviXfEu+Jd8S74l3xLviXfEu+Jd8S74l3xIU4GyzyH/ACun8q7NJnZ3xNF3d1xFBcRQXEUFxFBcRQXEUFxFBcRQXEUFxFBcRQXEUFxFBcRQXEUFxFBcRQXEUFxFBBrhrx6Rf+9x/8QAPhAAAgIBAgIGBwUHBAMBAQAAAQIAAxEEEiGSEzFBUVORECAwQFJxsiIyUGGTBUJUYHKiwRQjM4FioKE0gv/aAAgBAQAJPwD/AN7q1VmoWahZes1CzULNQs1CzULNQs1Cy9ZqFmoWahZqFl6wgg++OFXvM1Cy9ZqFmoWahZes1CzULNQs1CzULNQs1Cy9ZqFmoWahZqFmoWahYQQfx5QxQhVzKk5RKk5RKk5RKk5RFqDN1DAyYaVK4znAxmWachRk4xwE6EK/3Tww0u0/msFRcDJXhkCPQrn904zKk5RKk5RKk5RKk5RKU4j4RPupaQvvgyq1FsSpOUSpOUSpOUSpOUQVIvewAi1MnxAAiNRsJxu4YzLdOQBk8V4R6HbuXBMagv8ADwzDShPUGwI1CBvuk4GY1BQHBYYgqUscKCAMw0oO9sCJWynqIAMqTlEqTlEqTlEqTBHwidSWso/HvEX1R9rTWq3/APPbMZ1GsQqW+BWwI+hLdFw6AYaDNZvWykn4GHFZSgRNKr9UodRbed9nZ0b8FEt09uXzZRcpD5HYpilcoDt7vV8Y++eCfVx/p+gYIW+4HiHddb0QwMKzN2rNKUUoLqkfB/IxEDnILY7nlmhNpocJ0Aw+ZRRbYuNyliLA82B2YFDZ4eOyVq4N1/RJb1bIEqt6esNQgwqgHg0oe0aeoBGXqSzg01NddvQsQty5raUpWFtYYT7rfmPV8d/x7xB6oBB74iFB1KQMSisZHYoiKSv3SQOERckYJ7xFXb3YGJUhbvIBPreOffPBPqqrD8wDETCnI4DgYq7hwzEXZ8OBiVID3gASpN3fgZlaN8wDFX7PUcDI+UrQk9ZIEUDJyccMypCo6hgYgAA7BwHq+O/43+0aaRXY4FDjhhDjDGapNEtQ4VFQX+bZgwzA5j1gbxnfLaJbRLaJbRLaJbRLaJbRLaJbRLaJbRLaJbRLaJbRCN3S8ce+Mgfof3pbRLaJbRLaJbRLaJbRLaJbRLaJbRLaJbRLaJbRLaJbRLaJbRLaJjPTNn8b0tZsJyTNOjsO2KAoGABwAE+NfcfGPvVuxlUnOMnAhyzVISe8kTwT7r47/jNhTpmbcw68KMy3UfqtLdT+s8t1P6zy3U/rPCxAcYLHMAxbfsbyJiVuil8pgg4QzqZQwmAaDn5qRkGXUUnoFc7+9p0dtbBmtdPhBxkRkAr2EEjOQwzDWdyfYQAglicCAC1GKuB7DxjND05pCmwlgoG8ZAE0r2XD/kRvsCr+smVGq2l+jevuPu9zJnOSO6XNYF4At3TwT7r47/jPfZ9Pq+II2OhuDnyIl9S1MX3MFJfDGbhsG37rH7sfCFQLV+NQdwE6AhqlQiwd06PgjoVQHBDS3erlQneqrLMpRxYDI3ER/wDbdQSpJJ3Dt9h4xmusoNqqLQoBB2zUW0XDrsH2i/8AVHZ3sffY7dbN7uoa65iqA9U1en/SMsR26I4KjbMEoBDQFqKjaynLZXPXF2klgR3FTgibA4Te7uCQAe4AiIhsTgmzqcxqUtpLi0FSRw7pbQDa1YB2nChpqKL9uAq1AjiY+nKseKrlWWdCtYYhVcElsSyqkWUs56QZ4rAhI1S0l1ztYHtWIDQrLW79zvxHsPHf8Z77Pp9XxFig9NdsPkTKamrVnygzuwphyGUEToQtThPtZyeGYilcKLW7i3VFQdFjez97DOABKqlKA7kMWs9JuJK54AAGIp6JKiMnxGxOiYWhiDWTlcRAK8sqP3sn3h62mFgNpyS+J+zxgde2wEzirj3jvt+n0eCYcFgJbUFtZT9oEkYGJvYqMkhCcknJMcK5TYyupAYS8Oos3uijHyAjbUuqwVJJw3fGTdUayCwJB2ToVDAYNYIIIOQY1H+2ysWRTubEuQVliRuUlkz3TDpXSa8MMkknJMtGyvUB07wo7DDm92LmzJ+/2GHLADJ7z6/jv+M99n0+r4iwgdFfvPkRHqVGZ8uMlsOZaBsAXGD2CVVW9K+5SVyQMR26S1mJKkhR2L5RqmexF6UNkDco6xLQ1r5+1jAEdQ9JPBupgRgiNWbLjX8gqGLWm6sq648iJaemqZX3FiQT+95+t4x9Hi2/WfeO+36fR4JgBZQMAytNtnBXQ9TAZwQZbpQHwdmTmCkGt9vRuxDNErApIV2f48ZwMRKq3ZHZt7EjhFQsl6VkqcqQ0FOyixlwSQxCytAEVCzWd7DOABKgm/pS/HOAgzkSmvoiu/Zk79kTFTopSz/yYZAMUDDuvKSPYeO/4z32fT6viLFB6a7Z8uBM0tbUqz52ud4CmcQwDAymg10Ng7nIY8MyqnBpSzNjEfelAN72vWF3fYynWcylFs6J7EKMSrbJQgqt2APWxO0v1ZBAiAGtrAB/RKULitHcuxCrvmmqDVq5dWc/u/DKajfdxrVWO0ADJLSpFcqXVkYlT6njH0eNb9Z9477fp9HgmEBmxgmNUFq4oiZOWxjJJmn0hCcN+Tux5RdOyseFpyGUQ1OLMF1sJHEDG4EAxkt2VuG4drRlFYvR07wAckGV1u1lzODjqBhqItxvRyRgjtBEtVygt39n3xjAltXQ4KC3jvCRhsdawnepQR1d9zkkduT7Dx3/ABnvs+n1fEWEYqu3t8sEQ1KrM+Xzk7XMvQbAFwT3REsFr7l+WBK0as0qijujJ0mmZgmepkPDjNisKLErRTkZftMNaVVFC20kl9kNXR2sxDEnKh5sYNWiOrnH3Oox0NliOBjgF3DAhXpaARg9TBhgiBFKoVRFOev1PHPo8a36z7x32/T6PBPuvjv+M99n0+r4iys2WWttRerJlATAyHVty/8A0CU7di71z+8nYZVhgyK1fdummqJZWZT0nYD8pQC41KUgFsAlpT0bspZMNuVgsqKgZKN8YBwTNKOgPWUfLKM4yQQJ2+v4x9HjW/WfeO+36fR4J918d/xnvs+n1fEWFelpYsobqYEYIipSHGzAOWAPWcy53GxqmV2GApHZCodVqS4E8GCwDYtTqfmTFVidYlyjOMhYqI6VOlSBs4L9bEy53Nf2GV24bG4GVpWnENZuySuewTsGB6/jn0eNb9Z9477fp9APRlChMvWXrL1l6y9ZesvWXrL1l6y9ZesvWXrL1l6y9ZesvWXAxSN9jMB7C1PMS1OYS1OYS1OYS1OYS1OYS1OYS1OYS1OYS1OYS1OYS1OYS1OYS1OYS1OYS1OYS1OYS1OYS1OYS1PMQ59977Pp9XxF9x8c+jxrfrPvHfb9PoAIlNfKJTXyiU18olNfKJTXyiU18olNfKJTXyiU18olNfKJTXyiU18olNfKJTXyiU18olNfKJTXyiU18olNfKJSgP8ASPYHHSWKhlIMoWULKFlCyhZSsoWUrKVlCylZQspWULKFlCyhZQsoWE9HsDAHs9a1VPcTNQnnNQnnNQnnNQnnNQnnNQnnNQnnNQnnNQnnNQnnNQnnNQnnNQnnNQnnNQnnNQnnNQnnLUJ7gfV77Pp9VtosIZSZennL085ennL085ennL085ennL085ennL085ennL085ennL085ennL084DtstJX0eNb9Z9477fp9+/iE9brxwmodb+kffZvKmsqZaWULVgmMf+OjE0YqYaR8OLSx4rHY77KbK27Sh6wZWejOmLldzdeZpBcBqWAJtKYipqK0qUGoW7HpxN20pw3nLet4Q9XsErDu7EktNOnlNOnlNOnlNOnlKqZRXnulNQzKqhKajKqhKaz8pRXkSqrd3ds06eU06eU06eU06eUrVHTBUidZUep32fT6tat85p08pp08pp08pp08pp08pp08pp08pp08pp08pp08pp08pp08pp08pp08pp08pp08oAAPR41v1n0aWyxQcbhNBZNBZNBZNBZNBZNBZNBZNBZNBZNBZNBZNBZNBZNBZNBZNBZNBZNBZNBZKHqZvu57fR32/T79/EJ6+lQ2ZyTNMrOZp1IdVVvzCzSqMqVPE9RlCkUnNf5RB0oXaG7cTSKXc5Y5M0qEqMRQqqMKB1Aet4I9XuM/P1f2ZW4W5ybiwBADSq4LZqdpfH2Oi+6IVLI+FDnqr71ih/wDdqQWN1lYq1VmizHYMwB0b9oVBe5pSmkFNGWpVs74lqjVu4dmGFyxymIKNVUb8lt+y1TnqEzgqCM+p3CfAPU77Pp948W36zPgM+H1dPf0dLlHsCZUETTX27FViyKCMMIHc3EhEVftZErtRqBl62XDSq2l3BKCxcbor9EPPgcSi651UFxWudoM097VH94JNNeLLCQlW37bRXrNGN6MuHGZp7qmK7l3rwI9Xxx6O+36ffhlheuBNCvPNCvPNCvPNCvPNCvPNCvPNCvPNCvPNCvPNCvPNCvPNCvPNCvPNCvPNCvPNCvPNCvPNCvPNCvPNCvPKwj9EOAOfV7jPz9WtQhzlfnKl6IDATsmnRyOokSpSikYXHAYlSuB3iUIEVtwXHAGVKzbduSOyVqVQgqO4rNNWXznOPV7hPgHqd9n0+8eLb9ZnwGfD6tt6VPqXPRAgK6x7aV6NBUVOFbAmibNCPXZT2/1LNM1ZfTiqus4LNNG9FWnO4s5GScYwJonyzsOlyNmC2ZpXvrv2EFMZUqMTThbmZCa1/qlJtCVGt0XrmiyLKlRKHOCwEp1FOmFZ3pc2Rns2+r46+jvt+n37+IT3Xwh6vcZVWU44yZRV5yirzlFXnKKvOUVecoq85RV5yirzlFXnKKvOUVecoq85RV5yirzlFXnKKvOUVecqrCdpBnwD1O+z6fePFt+oz4DPh9Bh9qYYYZ46+jvt+n37+IT0acM1wdsM+MBJU1dlZAdD+fo0vS1ISpYvtLFfhErK7a634/8An2SrJqapeLYybJp6gqIW+zZuOfKVHNlorZT+600lWQof/l7CflNNUVVymWtweB7sey8ERF6K3dx7eAz6ncZ+fuXcJ8A9Nm5ehR1UDAG4md9n0+8H7aX2gj5tPgMttBYdQaXXc0uu55ddzy67nl13PLrueXXc8uu55ddzy67nl13PLrueXXc8uu55ddzy67nl13PLrueXXc0sds3D7zZ9Hfb9Pv38QnopDmtLFYBviMetHtIAXPAKstR/kQZStil3ZHLYxuOftSkW76q1JDbeK5lYPStQwUn4OuaAVF6yu7cDMbdyG5Se1P3hPumlVHzBmgWwm1mDhgOuDH5ex8ER6AlJO0MGzxHqdxn5ysk10dLNOaxacK2Qy7p2AmabFb8c7+yIRszhj1Ng4M0rWVAkbsjLY7hNLkXNhDuHdmV7WrCFuPxDM05LWWWoBu8Mys1tSAWGQRgysoVbGD3EZB9fuE+AenV2ksApXC42id9n0+8KSQ21mUlILMhSf+Rp8Punjr6O+36ffv4hPRWwNa5ZCZo+n6P75JAAPcMygqLLCj8ANhHfEJJrZye7E0pRbzhGDBpoiaa2cMwcZwhwTiaXpAqIxYuF4PE2sesZzj2lHSsaxwztn7NH6on7NH6on7NH6on7NH6on7NHV4o9CZD6Qov9WZStFNLK5JYMWKy+skjAAYRXOpSrgvStt3S5rGqbipwAQ/35pldQSEtLgDB7xMEV2MX5CJQLltRcjcFKssGQHue3axXBsijbdaP97OW2HrlrWI6bLM4GNv3fX7hPgHqd9n0+79QHzi2LvfcuUZQQFAnwGfDHb/ip7e9pZZttfa9bOXHzG6dYraJqFfCG13Y7GXHGLqRqHtdUu6QhM7vnLHxTsVUVigyRkt9mW2Oia3YDuIJGzOCVl9hT/T7+LZKHMP3rvMbDNTYLmyekDkbPyEew9KX34sYBsLHs20sERA7LgYjlxVe6IxOSQPX8dfR32/T79/EJ6EXp+h6Kxc4BWUG1LX3ghgCrGAZse13weA3jhFXpD0u/B712gTTGp6iN9hcEYn/L07vsL5RwXJwZo3dXrQDDhcESspj90kEjy9p4Q9NyVgnALHEtQV4zvyMS1LFwRlTmfnNMbGWtXJ3BRhiQJoyzmvcwLKBNAovc4WtQpPCaZ0Kui94O84BBEUk278Hu2jMQ/YBw3YxXrA9p3CaByAo471E/Zz/qLP2c/wCos/Zz/qLKxUtSsEQNuJLe8/AZ8MX/AJQqtg9i8RFLW4wpdiZTVsYYbDknHlBhUUAfIRP9s54fM5m8OF27lYgkRCFRtwwxBzEyLRhyxyWgYsoIXcxOM90VgGOWQMQpMHGvOz8sjEDK5XBKsVJEXCj1/HX0d9v0+/fxCejTWJQ37/AiVljXYiYHaXmnsrfo2cZwchZo3VHAIYkcAZprXqBILiUWWsoBbHALmKyGxHb7QxjZ1zT29B4vDq78TIYKGVj1NAQMkeRx7Lwh6dEdTUNOU2DBKNnOcGaINR0hYaHd93h9+aU6euytVFZ62K9bT84bFQ0IoKOU45PdNPZdWKQoIc5zmaZh0W9DWW47W7QTNPtQ2VYUn7RAbJlPFa7c5Yns4dcvNj1vkpgD7/3vadwnwD334DPhl1y7Er27HK4zHutxbchNTbCwXtOCINQjG1SyvYSzKOsKY96PhPsWndsDNt3KTNTd/wCQZyweNqhqLWwrM52E5j2bRq6lwpOcECG4VCoBTaS2HJxkZmquyD9rc5YP/wBGXOFcXu5DEM21sAZl9pR9MzrlizIfmY5NteoQMfjQg4PsPHX0dY6Qn37+IT0aNkPR7Htdl2gGI21r6SpBAJVQBA9q2UEIzNkocdXyM/Z+qVgqqzFxt+qaJnK5CWBlCETTNetxVvsEAq2MdplYTNN6vg5275om3Gvo+lyuzHfODp0Zqf8ANBiVlHLMSvdk+y8Ier3GfnEYmunpTjumnsoa37hbBDH5gn0aW5qM46UYxAQam2mUu7C80hQQMkCaO1AmMDKktu+UDP0wJTGB1DM0NqlCu8lk+zumgu2P1MWT2HcJ8A99+Az4Y1is4AYKxAIE3IKs7CjYIzLLW+1uBL8VPeDN9hsXaxdsnEaxynBA7ZCwHYhBXvBBzActYth/qWKGVgQQe0RrH2HKB33BYGGxiyMGwyloHc2DDMzZYiL9un7p9gxGbgMiazU88Lu7DBd23H37+IWAnA6hNNaHTG7qwA001pUnAPCA/YsKH5iaa1grshbhjKnBmnsc1thiO8jMossdQC4XH2czcA9vRHhxVh3w42VdKT+ROJRbWthARmAwSfZ+EPV7jPzlRIfR7F/qzNO1ddTq7u5+EcAI33lImkJsrUIGyNhA4ZmmtYWWhgygYxgCUuy/61rMLwO0rKL1JsrP+4c9TgkiJnT5dwfgLDiIp2v0W0/0iaXVB1xnDHb7DuE+Ae+/AZ8Mt1IwiFBXmWXqTp3ZhXkHIYSy41vqlFZ/fKT/AFAbKKDbxA3HGRNZafiVjuDS91Bqd3ZThmw2Jazp0IsUtxK8cY9r46yg223PsrTOJo3r1B/46lO/pP6TND0DXKzVEWBwxX33+IX0KdrpWFPfiabWbw7dTHb1/Oaa479SzKwXIw00usLHUWMCjEKQWz2NLb6VexSoVsZAQSiy6u4qwdMEggYwZTws1T2WJ8KtWVwYpKpQi1Oep8PuAM0ltZ6RGsZsALtOeHs/CHq/CZ+foGQesTT1gjqIUe37hPgHvvwGfDPvWBQR/TCdyoUHdgnMd0Bu6UbT91vymotuV1wVcj/AEvus2fcDsMLHsQ1fcsU4YZjM7vjdY5yxx7Xx1lr1WVtuSxetTLrL7z1XE7WT+jHVNbbqXrUrVvAAQH33+IT3Xwh6vcYeKlgYYYYYYYYYYYYYYYYYYevGJ1hR778Bnwy1lCV04x2bmmoexLXKFX4kHGcgwZ2Vs2PkJrGFjBWI4FMHiRiXhaqWRHXvLzWXBHrd+uPrTsswDUuVl9ldVCJ/UxYZyZrC5svKG0rhlAG6Xs6XK4w2CVZVyCJqNQ+osKFlZfsEdscZW7ZXnsJAxLRZZS2Gf4geIPr+Ov4B1LehMYY+cYQiMIRCIRGEIhEIjCEQiERhCIRCIRDkCsAn1i6E9e1sS+7ml1/PLr+eX3c8uv5pfdzy6/ml93PLr+aXX88uv55fdzy6/ml93PLr+aX3c8uv5oXcjqDtn374DPhjuDaiAkdm05EstvsVcIGI/wDgGJonCnrJZZqbuhUgrVkYibw5YszYLHdHZjVV0YJ7RNXdWHbcVAUjP/YmptS0KFLjH2h+cewsX39Ju+2Gl1tz7CgLY+yD3AARmHQbejYdY2wsR0psKnqLEYg2kpsIHAEA59fx1/AFBU9hiMPk0V+YxX5or80V+aK/NFfmMV+aK/MYr8xivzRX5or80V+aK/MYr80V+YxX5jFfmivzGIFH4t8BnwywrsrpKflubBl5tqubZhgMqcZBBEOCqMRNU9z2bemQqCACOJzNZYdUXdUq2ZDENLzSlOFIXGSxGScmWhlp1BqsbGMhhwMsZaqnrrBUZJbI3ES/VFkqYjpK9oHmBNRqmYrnD1EL54mqLYQPYjgYImpapEfYgUDs7Tmahq8WXVu6DrKS1raQwCWFcE9/reOv81/AZ8MdgbVRTjs2HIltt7oDsXgMTS3KHBBY7eGZxCKFB+QjtwYur9qknORL3rdlAcjBDY7SDCxD5LseLE98sYYIO/tyDuzNW7K6FSCo7ZrHZQMYKrNTY9SYxXwA4TUPV0n3wMEGE/7Jb/sv1kxjiw7ivYD63jr/ADX8Bnw+6eOv8nkBQMkwWH8wsS3kMS3kiW8hiW8hiW8hiW8hiW8hiW8hiW8hiW8hiW8hiW8hiW8hiW8hiW8kS3kiW8hiW8hi28hjZx1g8CPX7VIlVgZOHBcgiLbyxbeWLbyxbeWLbyxbeWLbyxbeWLbyxbeWLbyxbeWLbyxbeWLbyxbeWLbyxbeWLbyytwiPuZmGP5P6jYoMHAD0sFQdZl6/YXc3yl67n+72Zl6hh1/lHUvsDgd4l6jDlP8AsS0BFYKTgjiZcNta7nOCMCXKWxnbNQgIOD3CWgPgHGJemywkKZcNiHDEgiWAsoyVxgiD0jG6jLezE8Np4ay2tmXrAYEiW1iz4dwzB/Lfir6gyxZPqlyvYuksRFRNvWI+/TDYRsTBVwOGZRYbnssIwhPSBojNbTWyOg7nyQI7Iwd3tsClsM01T3FNTWS/RFSomse9uh6jVslT7qONlhQqAAuMTTWHVHpF2hCd5aOFtTQoCWXIJ7o1tbDV2G1imSrY7pdfqQHQ5WrYyRzfSKv+c17Gz3ep4H+faeG0OLG02F+eJ+zLdHqawu7UsNm3v/rn7Ks/1pf/APTjK5+PfDkgAE/y34q+6+B/n2nhtPDWCD+XPEWa7+wTX/2Ca/8AsE1/9gmv/sE1/wDYJr/7BNf/AGCa/wDsE1/9gmv/ALBNf/YJr/7BNf8A2Ca/+wTX/wBgmv8A7BNf/YJrzyCa/wDsEu6RjT14x7Tw2nhr/L3ir7r4H+faeG08Jf5e8VfQyI1llqkldwwhMVd6KGDLnDKYVDGxFywyBuOI1NproNgdAQPk0vovFpIIQEMoAzmGlUwxVCpJYD88wBVsoW2v/MsqqW7pCpdSfsqeE1NDF7tpcIdoHnNVRaw2BSqYALHHfOjdHDYdAVOVG7iDmdDsCb+iwc7f6pqKKkVEZd44tuEQKST8j+Y9bwP8+08Np4S/y94q+ixN1VlrfaUkYeO1ttmFJRDgAdgAiuuHRzvRgCFMCpvTbkCFVIXZYMcHWXoKDnrUl1Bj9GaxsDD4CMMIah0SMoVwSMNG04dLd64U7Y+nBO0qUUgZU5lqMFUhERcLlhgkzUp/p9uzO09JtgUpaiIF7goxHDleAI7vW8D/AD7Tw2nhL/L3ir6Kwtlas6DsdBFrUIqli2TksM4wJUu9dSarR8lLZEUMrLl27sjhDSxufBrXO4R9OBWzDY2cnbGpqzQln+53tGRie1er2ngf59p4bTwl/l7xV9FoW1S+1uzDniDHqIdVDq4OMqMZGJYHY3m23hgNlSuBLQ7LaWLd6gbVEOnVK2B3qCX4GBBa1rWI+OIJORE07k1KjB89Y7oqBu5M49p4H+fTk47BKyhrsKEH2HhtPCX+XvFX0U1tUrvkAncFU4iKQgpKEnxIKm3q5BQnI2jMs0wD4ymftCUoUUsFDHDPtlSqyKpsL9SluoSkI1jurccjCjOREXolUla9xBZfilf+01aMHz2v1CADZc6cp9l4H+fSuTjgO+afYLLDYDuB9h4bTw1/l7xV9DUpWzNl8kthjCm2wUgZ7qzK60R6ijrjyImk0hKYBfPH6Y1RrZmKM2cpujo5dFW0OSuSvaMS1GZHdmA7mGABDSasbVsJO4LDmt6qkXvBTPGOHdrHcsO3Pskdh0GMIMmaTV/pTSav9KaTV/pTSav9KaTV/pTSav8ASmk1f6U0mr/Smk1f6U0mr/Smk1f6U0l+5xjLrtUZn7qgeX8veKvooo4Irk7z1MYmnAW1042EH7JxFA6GwL88gGdCqU2suGsKkyqk7EQsWYji0prNlaqbSWIVS3YJpibUuFboD/3kTjUaGtzNMi0kjO1iWUN3+z8D+a/FX0fcahU/7ViZotNYxuscOevDNmV1slrhvvEEcMTRae3faXDN1ypCGRAo7sRUKWKoZGOMFeAIhXe96O4HUFUYAEcdA9LKg7ULGLUqZG91OSwHs/A/z+K/dRCx+QGZoDVpHwRYGDFQ3UXE0GdGOJdmw5X4gsOQwz+J+Kvuvgf5/FRlXUqw/IzV330V42UvgLNZeNKx40dkHADA/ExkI6sZamCO+WJ5yxPOWJ5yxPOWJ5yxPOWJ5yxPOWJ5yxPOWJ5yxPOWJ5yxPOWJ5yxPOWJ5yxPOWJ5iHcEpwSP5rGRKBKBKBKBKBKBKBKBKBKBKBKBKBKBKBKBKBKBKBKBKwo/97n//xAApEQACAQIEBgIDAQEAAAAAAAAAARECURIiMDEQIUFSYXFCUCBAgTKA/9oACAECAQE/AP8At2HYh2IdiHYh2IdiHYh2GmumvDsQ7EOxDsQ7EOxDsQ7EOxDt9Aznc53P6f0/pzuc7i2etT19HO5zuc7n9Odz+n9Odznfg9/32iCCCCCCCOT1qN6vRBBBBBBBBBHkq3/e5XKt9BbVa1G9XrTq3/cXF6C2q1UUvnV603v+4uL0FtVqrqUb1etN7/uLi9BbVaqKN6vWnVv+EOxDsQ7EOxDsQ7EOxDsQ7EO2uuL0FtVqoTgmmxNNiabE02JpsTTYmmxNNiabE02Hxp3JdzFVcxVXJquTVcmq5NVzFVcxVXMTuVbr1xinyZPJFPky+TJ5MvkyeTJ5MnkaXBcZRl8mXyZfJl8mXyZfJl8kqOXBJswshkMhkMhkMhkMgXXXp3IMLujC7owu6MLujC7owu6MLujC7owu6K9164LdFX+no/Fe+C1fi/ekhbvXp30696fXDqiqrM+RPgnwT4J8E+CfBPgnwNzQvfBaqSwP2RT3EU9xFPcRT3EU9xFPcRT3EU9xFPcKJ3kXXXp306lt6II5oq/09H4L3wWr8H70luLd69O+nVuvXDqir/T0fgvev8H70luX16d9OvdeuHVFX+no/Be9f4P3pU7k69O+nXuvXDqhzLOZD4QyGQ+HOw/8rX+D96S3/QW5luZTKZTKZTKZTKZRueOKq5idzE7mJ3MTuYncxO5idzFVcbb1/g/ekt/tvg/ekt/qIUczJZmXtZl7WZe1mXtZl7WZe1mXtZksyKYcL8E9+RNNiabMmmxKsyabMmmzJpsyabMmmzFUlsvqOi0l1+2mEjEzEzEzEzEzEzEzGzExPf8AJfYdFpLr+S+w6LSXX8l9h0WkupBDsQ7EOxDsR9h0Wkuv23REMhkMhkMhkMhkMS3+3lkslkslkslkslku/wD27//EACgRAAIBAwIGAgMBAQAAAAAAAAABAhESUTAxECIyQWFxUFIgIUJAgP/aAAgBAwEBPwD/ALdqsl0cl0cl0cl0cl0cl0cl0ciaffXujkujkujkujkujkujkujkujkujkuWfgEkyiwiiwiiwUWEUWEUWEUWEd1rS7FFhFFhFFgosIosIosIosFFhFFhDSwR2/3qRd4LvBd4LvBd4LvBd4K/ta0+3su8F3gu8F3gu8F3gu8F3gu8FxDp/wBtXgq8EdtB7x1p9vek9iO3+x8Y9OhLeOqyS6fek9iO3+x8Y9Og94nfUfYl/PvSexHb/Y+MenQe8TvqPsS2XvSexHb8KrJVZKrJVZKrJVZKrJVZKrJVZ13xjtoPeJ31H2JKqKSyUnkpPJSeSk8lJ5KTyUnkpPJbLIlRcZbFqa2LVgtWC1YLVgtWC1YLVgosFFghs/fGsjn8HP4Ofwc/g5/Bz+Dn8HP4It9+D4pSRSRSRSRSRSRSRSQk6/s7jaRci5FyLkXIuRci5FyLkPtry2Lv1sXLDLlhl3hl3hlywy5YZcsMuWGXeGQ2fvg9mR6VorrfB6ncfWtKWx2WvLYW2lHv74PZkYtxX7LfJb5LfJb5LfJb5LfJb5Iqk364PVk3evRWX1Ky+pWX1Ky+pWX1Ky+pWX1Ky+pWX1HXFB7LXlsLbSjs/ZUqqMj0rRXW/XB6lD+160pbHZa8thbaUNn74PZkelaP9v0UeSmq+tetKWx2WvLYW2lDZ++D2ZHpWiut+td9a9aUthL9LXlsLbShs/fBioVWSqyVWSqyVWSqyVWSqyLqeu+tetKWwtlry2ObBzHMcxzYObBzHMc2DmIqnG2OC2OC2OC2OC2OC2OC2OC2OC2OBJLXfWvWlLYWy+VfWvXCvCpUqV4y6RbL4err+jmyjnyjnyjnyjnyjnyjnyjnyjnyhOSaq6/g41dalJZKSyik8opLKKSyiksopLKKSyiksotb3fxC6npPeP5MXx9KtlkSyJZEsiWRLIlkSyJYhqjj+TFt8f8A09KW8fyYvj/6elLeP5MXx/d6Ut4lxVFUXIuRVfIf09KW8SiwUWCiwUWCix8j3KrJVZLlkuWS5ZLlkuWS5ZLlkbTa+WaT7FscFscFscFscFscFscFscFscFscCSX/AG7/AP/Z;" vertex="1" parent="1">
                    <mxGeometry x="-585.2" y="-2240" width="470.4" height="294" as="geometry"/>
                </mxCell>
            </root>
        </mxGraphModel>
    </diagram>
</mxfile>